<?xml version="1.0" encoding="UTF-8" standalone="no"?>
<svg
   xmlns:dc="http://purl.org/dc/elements/1.1/"
   xmlns:cc="http://creativecommons.org/ns#"
   xmlns:rdf="http://www.w3.org/1999/02/22-rdf-syntax-ns#"
   xmlns:svg="http://www.w3.org/2000/svg"
   xmlns="http://www.w3.org/2000/svg"
   id="svg4545"
   version="1.1"
   viewBox="0 0 292.30164 66.145833"
   height="250"
   width="1104.7621">
  <defs
     id="defs4539" />
  <metadata
     id="metadata4542">
    <rdf:RDF>
      <cc:Work
         rdf:about="">
        <dc:format>image/svg+xml</dc:format>
        <dc:type
           rdf:resource="http://purl.org/dc/dcmitype/StillImage" />
        <dc:title></dc:title>
      </cc:Work>
    </rdf:RDF>
  </metadata>
  <g
     id="layer1"
     transform="translate(43.593253,-12.572915)">
    <g
       id="g3262">
      <path
         style="fill:#202020;fill-opacity:1;stroke-width:4.98011923"
         d="M 0 0 L 0 250 L 7.9355469 250 L 7.9355469 0 L 0 0 z M 23.808594 0 L 23.808594 250 L 31.746094 250 L 31.746094 0 L 23.808594 0 z M 39.681641 0 L 39.681641 250 L 43.181641 250 C 43.34759 249.94631 44.136416 249.70854 44.238281 249.67383 C 46.058786 249.05353 50.236634 247.52943 55.554688 245.66016 L 55.554688 0 L 39.681641 0 z M 63.492188 0 L 63.492188 242.92383 C 68.502948 241.23052 73.95248 239.46565 79.365234 237.86523 L 79.365234 0 L 63.492188 0 z M 87.300781 0 L 87.300781 235.65039 C 90.07575 234.92746 92.747894 234.29262 95.238281 233.78906 L 95.238281 0 L 87.300781 0 z M 103.17383 0 L 103.17383 232.60742 C 103.89656 232.55563 104.59521 232.52148 105.23438 232.52148 C 107.13679 232.52148 109.12367 232.55166 111.11133 232.58008 L 111.11133 0 L 103.17383 0 z M 119.04688 0 L 119.04688 232.69531 C 121.70076 232.73443 124.34838 232.75089 126.98438 232.74023 L 126.98438 0 L 119.04688 0 z M 134.91992 0 L 134.91992 37.091797 C 137.06953 31.265903 141.7107 26.003177 150.79297 19.763672 L 150.79297 0 L 134.91992 0 z M 158.73047 0 L 158.73047 14.759766 C 161.1885 13.347393 163.83503 11.978907 166.66602 10.755859 L 166.66602 0 L 158.73047 0 z M 182.53906 0 L 182.53906 6.2519531 C 184.64636 5.9876918 186.77936 5.8587063 188.92383 5.9042969 C 192.09192 5.9716479 195.27419 6.3335452 198.41211 6.8710938 L 198.41211 0 L 182.53906 0 z M 206.34961 0 L 206.34961 8.5996094 C 212.20802 10.125202 217.6221 12.003563 222.22266 13.5625 L 222.22266 0 L 206.34961 0 z M 230.1582 0 L 230.1582 16.052734 C 234.01066 17.156875 236.35839 17.79574 238.0957 18.251953 L 238.0957 0 L 230.1582 0 z M 246.03125 0 L 246.03125 20.828125 C 246.55838 21.046912 246.81524 21.139119 247.52734 21.439453 C 249.48005 22.263022 251.69428 23.436493 253.96875 24.808594 L 253.96875 0 L 246.03125 0 z M 269.8418 0 L 269.8418 38.183594 C 269.9333 38.313095 270.03976 38.446366 270.125 38.574219 C 274.15662 44.621644 275.5919 48.519841 277.07812 52.978516 C 278.36562 56.841004 277.35946 71.558597 274.54297 81.041016 C 271.93914 89.807361 274.40942 90.038942 275.58789 103.88672 C 275.92831 107.88741 276.53154 113.48797 277.93359 115.07031 C 279.68213 115.34089 281.8557 112.95256 284.1543 123.75195 C 286.4529 134.55135 280.19934 144.56053 277.32617 150.32422 C 274.56643 155.86039 271.59645 156.30104 269.8418 159.375 L 269.8418 203.99609 C 269.93488 204.15305 270.02709 204.31212 270.125 204.45898 C 274.34157 210.78384 278.92091 214.16433 285.71484 216.6582 L 285.71484 0 L 269.8418 0 z M 293.65039 0 L 293.65039 219.00195 C 294.79784 219.28714 295.93807 219.57196 297.19336 219.85547 C 298.6502 220.21753 300.11586 220.56206 301.58789 220.89453 L 301.58789 0 L 293.65039 0 z M 309.52344 0 L 309.52344 222.55469 C 312.16731 223.06945 314.81467 223.53818 317.46094 224 L 317.46094 0 L 309.52344 0 z M 333.33398 0 L 333.33398 226.66211 C 336.02006 227.10469 338.66544 227.55557 341.26953 228.01562 L 341.26953 0 L 333.33398 0 z M 349.20703 0 L 349.20703 229.50391 C 353.61175 230.39825 357.82982 231.37703 361.75781 232.52148 C 362.80171 232.71017 363.92578 232.97539 365.08008 233.27344 L 365.08008 0 L 349.20703 0 z M 373.01562 0 L 373.01562 235.77148 C 378.29307 237.68253 383.84142 240.08756 388.88867 242.40234 L 388.88867 0 L 373.01562 0 z M 396.82617 0 L 396.82617 246.14062 C 399.93008 247.64926 402.48991 248.9333 404 249.67383 C 404.0858 249.7159 404.60886 249.94203 404.73242 250 L 404.76172 250 L 404.76172 0 L 396.82617 0 z M 134.91992 149.17969 L 134.91992 232.56641 C 135.28697 232.54974 135.66354 232.54093 136.02734 232.52148 C 141.71834 232.21728 146.21655 232.15331 150.79297 231.56445 L 150.79297 188.22266 C 150.34604 186.71981 149.91703 185.17967 149.43555 183.59961 C 146.97333 175.51949 142.51053 166.79526 140 159.26367 C 138.65131 155.21759 136.77439 152.14014 134.91992 149.17969 z M 158.73047 200.50391 L 158.73047 229.23047 C 166.09191 223.98764 171.29291 207.93277 159.12109 200.73438 C 158.9839 200.66185 158.86286 200.57938 158.73047 200.50391 z "
         transform="matrix(0.26458333,0,0,0.26458333,-43.593253,12.572915)"
         id="barcode_bar39" />
      <g
         id="g3190"
         transform="translate(5.2916959)">
        <g
           id="g3105">
          <path
             d="m 105.83334,39.03125 h 10.58334 v 5.291667 h -10.58334 z m 21.16666,0 h 15.875 v 5.291667 H 127 Z m 15.875,-5.291664 h 5.29167 v 5.291666 H 142.875 Z M 132.29167,28.447918 H 142.875 v 5.291666 H 132.29167 Z M 127,23.156248 h 5.29167 v 5.291667 H 127 Z m 5.29167,-5.291666 h 15.875 v 5.291667 h -15.875 z m -15.875,2e-6 h 5.29167 V 39.03125 h -5.29167 z m -15.87501,0 h 5.29166 V 39.03125 h -5.29166 z m -10.583324,-2e-6 h 5.291666 v 26.458334 h -5.291666 z m -5.291664,15.875004 h 5.291666 v 5.291666 H 84.666672 Z M 79.375,28.447918 h 5.291667 v 5.291666 H 79.375 Z M 74.083336,23.15625 h 5.291666 v 5.291667 h -5.291666 z m -5.291672,-5.29167 h 5.291667 v 26.458334 h -5.291667 z"
             style="opacity:1;fill:#fc941d;fill-opacity:1;fill-rule:nonzero;stroke:none;stroke-width:0.74835467;stroke-miterlimit:4;stroke-dasharray:none;stroke-opacity:1"
             id="rect5092-5-3-5-6-7" />
        </g>
        <g
           id="g3140">
          <path
             d="m 222.25,68.135414 h 15.875 v 5.291667 H 222.25 Z m 15.875,-5.29166 h 5.29167 V 68.13542 H 238.125 Z M 227.54167,57.55209 H 238.125 v 5.291666 H 227.54167 Z M 222.25,52.260418 h 5.29167 v 5.291666 H 222.25 Z m 5.29167,-5.291664 h 15.875 v 5.291666 h -15.875 z m -15.875,21.166668 h 5.29167 v 5.291666 h -5.29167 z M 206.375,62.84375 h 5.29167 v 5.291667 H 206.375 Z m 5.29166,-10.583336 h 5.29166 v 5.291667 h -5.29166 z m -10.58333,5.291668 h 10.58333 v 5.291667 h -10.58333 z m 1e-5,-10.583332 h 10.58334 v 5.291667 h -10.58334 z m -5.29167,-4e-6 h 5.29167 V 73.42708 h -5.29167 z m -15.875,10.58334 H 190.5 v 5.291666 h -10.58333 z m 0,10.583328 H 190.5 v 5.291667 h -10.58333 z m 0,-21.166664 H 190.5 v 5.291667 h -10.58333 z m -5.29167,0 h 5.29167 V 73.427084 H 174.625 Z m -10.58334,21.166672 h 5.29166 v 5.291666 h -5.29166 z M 158.75,62.84375 h 5.29167 v 5.291667 H 158.75 Z m 5.29166,-15.875 h 5.29166 v 5.291667 h -5.29166 z M 158.75,52.260414 h 5.29167 v 5.291667 H 158.75 Z m -5.29167,5.291668 h 5.29166 v 5.291667 h -5.29166 z M 148.16667,46.96875 h 5.29167 v 26.458334 h -5.29167 z m -10.58334,15.875 h 5.29166 v 5.291667 h -5.29166 z m 0,-10.583336 h 5.29166 v 5.291667 h -5.29166 z M 127,68.135414 h 10.58333 v 5.291667 H 127 Z m -5.29166,-15.874996 h 5.29167 v 15.875 h -5.29167 z M 127,46.96875 h 10.58333 v 5.291667 H 127 Z m -26.45834,10.583332 h 10.58333 v 5.291667 H 100.54166 Z M 111.125,52.260418 h 5.29167 V 73.427084 H 111.125 Z m -15.875,0 h 5.29167 V 73.427084 H 95.25 Z m 5.29166,-5.291664 h 10.58333 v 5.291666 h -10.58333 z m -15.874988,-4e-6 h 5.291666 V 73.427084 H 84.666672 Z M 74.083328,57.552082 h 10.583333 v 5.291667 H 74.083328 Z M 68.791672,46.96875 h 5.291666 v 26.458334 h -5.291666 z"
             style="opacity:1;fill:#000000;fill-opacity:1;fill-rule:nonzero;stroke:none;stroke-width:0.91654354;stroke-miterlimit:4;stroke-dasharray:none;stroke-opacity:1"
             id="rect5092-5-3-5-6-2-3" />
        </g>
      </g>
    </g>
  </g>
</svg>
