<?xml version="1.0" encoding="UTF-8" standalone="no"?>
<!-- Created with Inkscape (http://www.inkscape.org/) -->
<svg
   xmlns:dc="http://purl.org/dc/elements/1.1/"
   xmlns:cc="http://web.resource.org/cc/"
   xmlns:rdf="http://www.w3.org/1999/02/22-rdf-syntax-ns#"
   xmlns:svg="http://www.w3.org/2000/svg"
   xmlns="http://www.w3.org/2000/svg"
   xmlns:sodipodi="http://inkscape.sourceforge.net/DTD/sodipodi-0.dtd"
   xmlns:inkscape="http://www.inkscape.org/namespaces/inkscape"
   id="svg2"
   sodipodi:version="0.32"
   inkscape:version="0.43+devel"
   width="1052.3622"
   height="467.09"
   sodipodi:docbase="/home/yug/Desktop"
   sodipodi:docname="bat.svg"
   version="1.0"
   inkscape:r_cx="true"
   inkscape:r_cy="true">
  <metadata
     id="metadata7">
    <rdf:RDF>
      <cc:Work
         rdf:about="">
        <dc:format>image/svg+xml</dc:format>
        <dc:type
           rdf:resource="http://purl.org/dc/dcmitype/StillImage" />
      </cc:Work>
    </rdf:RDF>
  </metadata>
  <defs
     id="defs5" />
  <sodipodi:namedview
     inkscape:window-height="736"
     inkscape:window-width="1018"
     inkscape:pageshadow="2"
     inkscape:pageopacity="0.0"
     borderopacity="1.0"
     bordercolor="#666666"
     pagecolor="#ffffff"
     id="base"
     inkscape:zoom="0.75528043"
     inkscape:cx="526.18109"
     inkscape:cy="372.04724"
     inkscape:window-x="0"
     inkscape:window-y="0"
     inkscape:current-layer="svg2"
     width="1052.3622px"
     height="467.09px" />
  <path
     style="fill:#5a5a5a"
     d="M 509.30275,406.92471 C 489.66608,388.13613 402.6691,381.16741 392.72136,392.62107 C 376.29274,411.5367 358.65402,429.40294 380.90513,391.06949 C 356.3918,417.35529 359.93617,400.98965 384.98931,371.45975 C 384.98931,371.45975 414.19434,364.30832 408.55622,346.3738 C 402.54308,327.24635 316.05087,277.1847 245.94171,289.51892 C 163.99314,303.93603 195.64911,304.83147 170.22961,271.21217 C 160.84451,258.79963 154.75006,246.30958 78.083179,252.70309 C 70.489795,209.69012 61.785434,179.51473 8.3201412,166.45391 C 159.66496,65.773802 214.84427,67.249709 214.14678,60.841102 C 210.80202,30.109366 200.43313,-4.7243402 223.99061,56.798551 C 223.45277,3.3210959 219.6031,18.81921 233.6777,59.179582 C 236.9278,68.499591 302.95871,98.852802 357.33791,110.33737 C 432.19849,126.14748 455.16524,143.03453 455.16524,132.0592 C 455.16524,124.05378 447.84765,102.28752 441.58127,98.414662 C 427.4725,89.694979 415.45289,26.61888 433.0897,13.286179 C 437.58361,8.7154052 527.69013,78.640221 527.69013,78.640221 C 527.69013,78.640221 608.84794,12.787103 617.62248,9.1546292 C 630.29922,18.97513 634.60739,59.47875 608.73417,96.644542 C 603.39051,104.32046 599.99557,121.06736 599.99557,128.18939 C 599.99557,143.45903 730.0544,116.02163 809.43552,65.751033 C 833.8505,50.289474 820.54378,-2.7330162 827.71421,53.2509 C 844.74181,5.1868857 841.07867,24.414978 833.56313,58.978403 C 831.96656,66.320917 946.39561,82.008749 1044.042,180.58046 C 1019.8813,180.58046 983.9546,185.27167 976.654,253.73156 C 906.68881,253.44017 899.34584,252.3788 869.78426,296.13002 C 790.32229,289.64004 714.55247,287.15254 679.4705,318.49834 L 641.37898,352.53314 L 669.65751,376.6022 C 686.1273,390.62045 699.56126,411.46109 669.89319,387.80187 C 673.6364,432.14516 673.60314,408.72653 653.1473,384.55944 C 621.52056,384.5907 552.34081,389.55403 546.00099,408.6178 C 523.64265,475.84908 523.81691,473.43283 509.30275,406.92471 z "
     id="path1319"
     inkscape:r_cx="true"
     inkscape:r_cy="true"
     sodipodi:nodetypes="csccsssccscsssscccssscsccccccccsc" />
</svg>
