<?xml version="1.0" encoding="iso-8859-1"?>
<!-- Uploaded to: SVG Repo, www.svgrepo.com, Generator: SVG Repo Mixer Tools -->
<!DOCTYPE svg PUBLIC "-//W3C//DTD SVG 1.1//EN" "http://www.w3.org/Graphics/SVG/1.1/DTD/svg11.dtd">
<svg fill="#000000" version="1.1" id="Capa_1" xmlns="http://www.w3.org/2000/svg" xmlns:xlink="http://www.w3.org/1999/xlink" 
	 width="800px" height="800px" viewBox="0 0 569.16 569.16"
	 xml:space="preserve">
<g>
	<g>
		<path d="M513.217,216.366c-18.427,0-31.318-4.568-34.492-12.218c-3.17-7.647,2.702-19.982,15.704-32.999l33.109-33.109
			l6.493-6.493l-6.493-6.49l-83.474-83.44l-6.49-6.49l-6.49,6.49l-33.079,33.082c-14.422,14.419-24.076,16.573-28.547,16.573
			c-3.295,0-5.915-1.083-8.24-3.415c-3.151-3.161-8.434-11.5-8.391-31.864c0-0.386-0.021-0.768-0.067-1.147V9.18V0h-9.18H225.599
			h-9.18v9.18v46.931c-0.024,8.229-1.3,35.166-16.741,35.166c-4.464,0-14.104-2.154-28.519-16.576l-33.103-33.085l-6.49-6.487
			l-6.49,6.49l-83.44,83.44l-6.487,6.487l6.484,6.49l33.082,33.112c13.018,13.011,18.896,25.343,15.729,32.996
			c-3.17,7.65-16.046,12.222-34.446,12.222H9.18H0v9.18V343.58v9.18h9.18h46.815c18.396,0,31.273,4.568,34.443,12.219
			c3.173,7.656-2.705,20.004-15.722,33.025l-33.079,33.08l-6.49,6.49l6.49,6.492l83.44,83.475l6.493,6.496l6.494-6.496
			l33.097-33.113c14.407-14.4,24.049-16.551,28.51-16.551c15.45,0,16.726,26.918,16.75,35.168v46.936v9.18h9.18h117.984h9.18v-9.18
			v-45.662c0.046-0.377,0.067-0.752,0.067-1.135c-0.042-20.373,5.239-28.713,8.391-31.871c2.329-2.334,4.951-3.42,8.25-3.42
			c4.471,0,14.125,2.148,28.544,16.539l33.069,33.104l6.49,6.498l6.493-6.496l83.474-83.471l6.493-6.492l-6.496-6.494
			l-33.112-33.082c-12.999-13.023-18.871-25.373-15.698-33.023c3.174-7.648,16.065-12.215,34.489-12.215h46.761h9.18v-9.18V225.546
			v-9.18h-9.18H513.217z M413.1,284.58c0,70.867-57.653,128.52-128.52,128.52c-70.867,0-128.52-57.652-128.52-128.52
			c0-70.867,57.653-128.52,128.52-128.52C355.446,156.06,413.1,213.713,413.1,284.58z"/>
	</g>
</g>
</svg>