<svg xmlns="http://www.w3.org/2000/svg" width="351.496" height="268.943" viewBox="0 0 93 71.158">
  <path fill="#fff" stroke="#000" stroke-linejoin="round" stroke-width="1.004" d="M126.011 186.516h16.12v16h-16.12z" transform="matrix(.99255 -.12187 0 1 -52.572 -120.581)"/>
  <path d="M77.796 61.879l5.408-.664v-.982l-4.279.525v-6.92l-1.129.138z" font-family="Montserrat" font-size="11.289" font-weight="500" letter-spacing="0" style="line-height:1.25;-inkscape-font-specification:'Montserrat, Medium';font-variant-ligatures:normal;font-variant-caps:normal;font-variant-numeric:normal;font-feature-settings:normal;text-align:start" word-spacing="0"/>
  <path stroke="#000" stroke-linejoin="bevel" stroke-width="1.16" d="M157.535 58.544H168.3v16h-10.765z" transform="matrix(.74314 .66913 0 1 -52.572 -120.581)"/>
  <path stroke="#000" stroke-linejoin="round" d="M88.5 48.613l-16 1.965-8-7.203 16-1.965z"/>
  <path fill="#fff" stroke="#000" stroke-linejoin="round" stroke-width="1.004" d="M105.861 182.424h16.12v16h-16.12z" transform="matrix(.99255 -.12187 0 1 -52.572 -120.581)"/>
  <path d="M57.796 60.242l5.408-.664v-.982l-4.279.525v-6.92l-1.129.139z" font-family="Montserrat" font-size="11.289" font-weight="500" letter-spacing="0" style="line-height:1.25;-inkscape-font-specification:'Montserrat, Medium';font-variant-ligatures:normal;font-variant-caps:normal;font-variant-numeric:normal;font-feature-settings:normal;text-align:start" word-spacing="0"/>
  <path stroke="#000" stroke-linejoin="bevel" stroke-width="1.16" d="M130.623 74.916h10.765v16h-10.765z" transform="matrix(.74314 .66913 0 1 -52.572 -120.581)"/>
  <path stroke="#000" stroke-linejoin="round" d="M68.5 46.977l-16 1.964-8-7.203 16-1.965z"/>
  <path fill="#fff" stroke="#000" stroke-linejoin="round" stroke-width="1.004" d="M85.71 178.331h16.12v16H85.71z" transform="matrix(.99255 -.12187 0 1 -52.572 -120.581)"/>
  <path d="M40.511 58.362c2.405-.295 4.188-2.23 4.188-4.555 0-2.326-1.783-3.823-4.188-3.528-2.427.298-4.21 2.245-4.21 4.559s1.783 3.822 4.21 3.524zm0-1.004c-1.772.217-3.082-.909-3.082-2.659 0-1.75 1.31-3.197 3.082-3.415 1.75-.215 3.06.911 3.06 2.661s-1.31 3.198-3.06 3.413z" font-family="Montserrat" font-size="11.289" font-weight="500" letter-spacing="0" style="line-height:1.25;-inkscape-font-specification:'Montserrat, Medium';font-variant-ligatures:normal;font-variant-caps:normal;font-variant-numeric:normal;font-feature-settings:normal;text-align:start" word-spacing="0"/>
  <path stroke="#000" stroke-linejoin="bevel" stroke-width="1.16" d="M103.71 91.287h10.765v16H103.71z" transform="matrix(.74314 .66913 0 1 -52.572 -120.581)"/>
  <path stroke="#000" stroke-linejoin="round" d="M48.5 45.34l-16 1.964-8-7.203 16-1.964z"/>
  <path fill="#fff" stroke="#000" stroke-linejoin="round" stroke-width="1.004" d="M65.56 174.239h16.12v16H65.56z" transform="matrix(.99255 -.12187 0 1 -52.572 -120.581)"/>
  <path d="M23.757 56.237l-1.874-2.423c1.106-.531 1.738-1.49 1.738-2.708 0-1.716-1.241-2.602-3.296-2.35l-3.082.378v7.903l1.129-.14v-2.404l1.953-.24c.17-.02.339-.052.497-.083l1.704 2.218zm-3.466-2.939l-1.919.236v-3.556l1.92-.236c1.444-.177 2.2.373 2.2 1.502 0 1.13-.756 1.877-2.2 2.054z" font-family="Montserrat" font-size="11.289" font-weight="500" letter-spacing="0" style="line-height:1.25;-inkscape-font-specification:'Montserrat, Medium';font-variant-ligatures:normal;font-variant-caps:normal;font-variant-numeric:normal;font-feature-settings:normal;text-align:start" word-spacing="0"/>
  <path stroke="#000" stroke-linejoin="bevel" stroke-width="1.16" d="M76.797 107.658h10.765v16H76.797z" transform="matrix(.74314 .66913 0 1 -52.572 -120.581)"/>
  <path stroke="#000" stroke-linejoin="round" d="M28.5 43.703l-16 1.965-8-7.203 16-1.965z"/>
  <path fill="#fff" stroke="#000" stroke-linejoin="round" stroke-width="1.004" d="M115.936 168.469h16.12v16h-16.12z" transform="matrix(.99255 -.12187 0 1 -52.572 -120.581)"/>
  <path d="M66.701 45.194l3.33-.409c2.54-.311 4.268-2.126 4.268-4.475 0-2.348-1.728-3.739-4.268-3.427l-3.33.41zm1.13-1.12v-5.938l2.133-.262c1.953-.24 3.206.803 3.206 2.575 0 1.772-1.253 3.123-3.206 3.363z" font-family="Montserrat" font-size="11.289" font-weight="500" letter-spacing="0" style="line-height:1.25;-inkscape-font-specification:'Montserrat, Medium';font-variant-ligatures:normal;font-variant-caps:normal;font-variant-numeric:normal;font-feature-settings:normal;text-align:start" word-spacing="0"/>
  <path stroke="#000" stroke-linejoin="bevel" stroke-width="1.16" d="M144.079 50.73h10.765v16h-10.765z" transform="matrix(.74314 .66913 0 1 -52.572 -120.581)"/>
  <path stroke="#000" stroke-linejoin="round" d="M78.5 31.795l-16 1.964-8-7.203 16-1.965z"/>
  <path fill="#fff" stroke="#000" stroke-linejoin="round" stroke-width="1.004" d="M95.786 164.377h16.12v16h-16.12z" transform="matrix(.99255 -.12187 0 1 -52.572 -120.581)"/>
  <path d="M52.769 34.91v5.893l-4.741-5.31-.926.113v7.903l1.129-.14v-5.892l4.741 5.31.926-.113v-7.902z" font-family="Montserrat" font-size="11.289" font-weight="500" letter-spacing="0" style="line-height:1.25;-inkscape-font-specification:'Montserrat, Medium';font-variant-ligatures:normal;font-variant-caps:normal;font-variant-numeric:normal;font-feature-settings:normal;text-align:start" word-spacing="0"/>
  <path stroke="#000" stroke-linejoin="bevel" stroke-width="1.16" d="M117.166 67.101h10.765v16h-10.765z" transform="matrix(.74314 .66913 0 1 -52.572 -120.581)"/>
  <path stroke="#000" stroke-linejoin="round" d="M58.5 30.158l-16 1.964-8-7.203 16-1.964z"/>
  <path fill="#fff" stroke="#000" stroke-linejoin="round" stroke-width="1.004" d="M75.635 160.285h16.12v16h-16.12z" transform="matrix(.99255 -.12187 0 1 -52.572 -120.581)"/>
  <path d="M33.458 41.091l1.185-.145-3.59-7.462-1.117.138-3.58 8.341 1.164-.142.869-2.083 4.2-.515zm-4.674-2.304l1.705-4.082 1.704 3.663z" font-family="Montserrat" font-size="11.289" font-weight="500" letter-spacing="0" style="line-height:1.25;-inkscape-font-specification:'Montserrat, Medium';font-variant-ligatures:normal;font-variant-caps:normal;font-variant-numeric:normal;font-feature-settings:normal;text-align:start" word-spacing="0"/>
  <path stroke="#000" stroke-linejoin="bevel" stroke-width="1.16" d="M90.254 83.472h10.765v16H90.254z" transform="matrix(.74314 .66913 0 1 -52.572 -120.581)"/>
  <path stroke="#000" stroke-linejoin="round" d="M38.5 28.521l-16 1.965-8-7.203 16-1.965z"/>
  <path fill="#fff" stroke="#000" stroke-linejoin="round" stroke-width="1.004" d="M126.011 154.516h16.12v16h-16.12z" transform="matrix(.99255 -.12187 0 1 -52.572 -120.581)"/>
  <path d="M82.64 29.284l1.32-.162-3.59-3.906 3.375-3.97-1.286.158-4.29 4.94v-4.413l-1.13.138v7.902l1.13-.138V27.79l1.445-1.645z" font-family="Montserrat" font-size="11.289" font-weight="500" letter-spacing="0" style="line-height:1.25;-inkscape-font-specification:'Montserrat, Medium';font-variant-ligatures:normal;font-variant-caps:normal;font-variant-numeric:normal;font-feature-settings:normal;text-align:start" word-spacing="0"/>
  <path stroke="#000" stroke-linejoin="bevel" stroke-width="1.16" d="M157.535 26.544H168.3v16h-10.765z" transform="matrix(.74314 .66913 0 1 -52.572 -120.581)"/>
  <path stroke="#000" stroke-linejoin="round" d="M88.5 16.613l-16 1.965-8-7.203 16-1.965z"/>
  <path fill="#fff" stroke="#000" stroke-linejoin="round" stroke-width="1.004" d="M105.861 150.424h16.12v16h-16.12z" transform="matrix(.99255 -.12187 0 1 -52.572 -120.581)"/>
  <path d="M61.081 27.929c1.23-.151 2.292-.71 3.014-1.612l-.733-.621c-.61.718-1.355 1.115-2.224 1.221-1.784.22-3.105-.906-3.105-2.655 0-1.75 1.321-3.2 3.105-3.418.869-.107 1.614.095 2.224.664l.733-.802c-.722-.724-1.783-1.011-3.002-.861-2.405.295-4.189 2.219-4.189 4.555 0 2.337 1.784 3.823 4.177 3.529z" font-family="Montserrat" font-size="11.289" font-weight="500" letter-spacing="0" style="line-height:1.25;-inkscape-font-specification:'Montserrat, Medium';font-variant-ligatures:normal;font-variant-caps:normal;font-variant-numeric:normal;font-feature-settings:normal;text-align:start" word-spacing="0"/>
  <path stroke="#000" stroke-linejoin="bevel" stroke-width="1.16" d="M130.623 42.916h10.765v16h-10.765z" transform="matrix(.74314 .66913 0 1 -52.572 -120.581)"/>
  <path stroke="#000" stroke-linejoin="round" d="M68.5 14.977l-16 1.964-8-7.203 16-1.965z"/>
  <path fill="#fff" stroke="#000" stroke-linejoin="round" stroke-width="1.004" d="M85.71 146.331h16.12v16H85.71z" transform="matrix(.99255 -.12187 0 1 -52.572 -120.581)"/>
  <path d="M43.458 25.91l1.185-.145-3.59-7.462-1.118.137-3.578 8.342 1.163-.143.869-2.082 4.2-.516zm-4.674-2.305l1.705-4.081 1.704 3.663z" font-family="Montserrat" font-size="11.289" font-weight="500" letter-spacing="0" style="line-height:1.25;-inkscape-font-specification:'Montserrat, Medium';font-variant-ligatures:normal;font-variant-caps:normal;font-variant-numeric:normal;font-feature-settings:normal;text-align:start" word-spacing="0"/>
  <path stroke="#000" stroke-linejoin="bevel" stroke-width="1.16" d="M103.71 59.287h10.765v16H103.71z" transform="matrix(.74314 .66913 0 1 -52.572 -120.581)"/>
  <path stroke="#000" stroke-linejoin="round" d="M48.5 13.34l-16 1.964-8-7.203 16-1.964z"/>
  <path fill="#fff" stroke="#000" stroke-linejoin="round" stroke-width="1.004" d="M65.56 142.239h16.12v16H65.56z" transform="matrix(.99255 -.12187 0 1 -52.572 -120.581)"/>
  <path d="M22.769 16.456v3.398l-4.538.557v-3.398l-1.129.139v7.902l1.129-.139v-3.522l4.538-.557v3.522l1.129-.139v-7.902z" font-family="Montserrat" font-size="11.289" font-weight="500" letter-spacing="0" style="line-height:1.25;-inkscape-font-specification:'Montserrat, Medium';font-variant-ligatures:normal;font-variant-caps:normal;font-variant-numeric:normal;font-feature-settings:normal;text-align:start" word-spacing="0"/>
  <path stroke="#000" stroke-linejoin="bevel" stroke-width="1.16" d="M76.797 75.658h10.765v16H76.797z" transform="matrix(.74314 .66913 0 1 -52.572 -120.581)"/>
  <path stroke="#000" stroke-linejoin="round" d="M28.5 11.703l-16 1.965-8-7.203 16-1.965z"/>
</svg>
