<svg width="103" height="122" viewBox="0 0 103 122" fill="none" xmlns="http://www.w3.org/2000/svg">
<path d="M0 59.9987C0 32.3845 22.3858 9.99869 50 9.99869H53C80.6142 9.99869 103 32.3845 103 59.9987V77.9987C103 96.7764 87.7777 111.999 69 111.999H34C15.2223 111.999 0 96.7764 0 77.9987V59.9987Z" fill="black"/>
<path d="M21 106.001C21 103.792 22.7909 102.001 25 102.001H79C81.2091 102.001 83 103.792 83 106.001V114.416C83 115.989 82.0714 117.402 80.5725 117.88C76.4558 119.192 67.0544 121.508 52 121.508C36.9456 121.508 27.5442 119.192 23.4275 117.88C21.9286 117.402 21 115.989 21 114.416V106.001Z" fill="black"/>
<path d="M48.2281 1.14208C49.0138 0.168814 50.4902 0.147594 51.3036 1.09787L63.4759 15.318C64.5779 16.6054 63.6797 18.594 61.9852 18.6184L38.0544 18.9624C36.36 18.9867 35.405 17.0247 36.4695 15.7062L48.2281 1.14208Z" fill="black"/>
<path d="M57.8941 5.15819C58.6937 4.08096 60.3063 4.08096 61.1059 5.15819L68.8218 15.5527C69.8015 16.8724 68.8595 18.7448 67.2159 18.7448H51.7841C50.1405 18.7448 49.1985 16.8724 50.1782 15.5527L57.8941 5.15819Z" fill="black"/>
<path d="M67.64 69.6L63.48 66.84L68.04 60.84L61.2 58.52L62.76 53.92L69.44 56.36V49.28H74.56V56.36L81.24 53.92L82.8 58.52L75.96 60.84L80.52 66.84L76.36 69.6L72 63.64L67.64 69.6Z" fill="white"/>
<path d="M24.4 66.24L36.28 59.96V59.64L24.4 53.36V47.84L41.6 57.04V62.56L24.4 71.76V66.24Z" fill="white"/>
<path d="M69.1227 20.5832C69.7616 19.8074 70.7932 19.487 71.7196 19.8764C73.333 20.5546 76.1031 21.9381 79.5279 24.5283C82.3227 26.642 84.3668 28.6752 85.7053 30.1697C86.8145 31.4081 86.3847 33.2632 84.9214 34.0525C83.708 34.707 82.1964 34.39 81.28 33.3598C80.0907 32.0229 78.3312 30.1988 76.4351 28.7591C74.5224 27.3067 71.838 25.6655 69.8478 24.5033C68.4601 23.693 68.1012 21.8236 69.1227 20.5832Z" fill="white"/>
<mask id="mask0_1242_739" style="mask-type:alpha" maskUnits="userSpaceOnUse" x="49" y="63" width="33" height="40">
<rect x="49" y="63" width="33" height="40" fill="#D9D9D9"/>
</mask>
<g mask="url(#mask0_1242_739)">
<path d="M78.1278 82.3639C79.6518 82.9225 81 83 81.5481 84C82.1634 85.1225 82.0531 87.0782 81.5481 88C80 90.8259 65.9734 98.366 54.7316 99.0205C52.6431 99.1422 51.4631 99.1418 49.3745 99.0205C38.1174 98.3667 23.5304 91.5391 22.5158 88.4218C22.0531 87 22.113 85.9723 22.5158 84.7577C22.9186 83.543 25.2698 82.9305 27.0531 82.5C29.4845 81.913 30.7784 81.3698 33.0531 80.3235C38.8855 77.6407 42.0684 70.1912 47.1622 70.0461C49.1942 69.9883 55.3085 70.0013 57.0531 70.0011C63.6259 70.0003 65.6397 77.7025 72.1281 80.3235C74.8115 81.4074 75.7019 81.4747 78.1278 82.3639Z" fill="#FF9011"/>
</g>
<mask id="mask1_1242_739" style="mask-type:alpha" maskUnits="userSpaceOnUse" x="22" y="63" width="33" height="40">
<rect width="33" height="40" transform="matrix(-1 0 0 1 55 63)" fill="#D9D9D9"/>
</mask>
<g mask="url(#mask1_1242_739)">
<path d="M25.8722 82.3639C24.3482 82.9225 23 83 22.4519 84C21.8366 85.1225 21.9469 87.0782 22.4519 88C24 90.8259 38.0266 98.366 49.2684 99.0205C51.3569 99.1422 52.5369 99.1418 54.6255 99.0205C65.8826 98.3667 80.4696 91.5391 81.4842 88.4218C81.9469 87 81.887 85.9723 81.4842 84.7577C81.0814 83.543 78.7302 82.9305 76.9469 82.5C74.5155 81.913 73.2216 81.3698 70.9469 80.3235C65.1145 77.6407 61.9316 70.1912 56.8378 70.0461C54.8058 69.9883 48.6915 70.0013 46.9469 70.0011C40.3741 70.0003 38.3603 77.7025 31.8719 80.3235C29.1885 81.4074 28.2981 81.4747 25.8722 82.3639Z" fill="#FF9011"/>
</g>
</svg>
