<svg width="553" height="237" viewBox="0 0 553 237" fill="none" xmlns="http://www.w3.org/2000/svg">
<path d="M33.0002 139.767C33.0002 96.5488 68.0355 61.5136 111.254 61.5136H115.949C159.167 61.5136 194.202 96.5488 194.202 139.767V167.938C194.202 197.326 170.378 221.15 140.99 221.15H86.2125C56.8242 221.15 33.0002 197.326 33.0002 167.938V139.767Z" fill="black"/>
<path d="M65.8667 211.763C65.8667 208.306 68.6695 205.503 72.1269 205.503H156.641C160.098 205.503 162.901 208.306 162.901 211.763V224.934C162.901 227.396 161.447 229.608 159.102 230.355C152.659 232.408 137.945 236.034 114.384 236.034C90.8226 236.034 76.1088 232.408 69.6658 230.355C67.32 229.608 65.8667 227.396 65.8667 224.934V211.763Z" fill="black"/>
<path d="M112.573 47.1638C113.803 45.6406 116.114 45.6074 117.387 47.0947L136.437 69.3502C138.162 71.365 136.756 74.4773 134.104 74.5154L96.6508 75.0538C93.9989 75.0919 92.5043 72.0213 94.1703 69.9577L112.573 47.1638Z" fill="black"/>
<path d="M128.351 52.0489C129.603 50.363 132.126 50.363 133.378 52.0489L145.454 68.317C146.987 70.3824 145.513 73.3129 142.941 73.3129H118.789C116.216 73.3129 114.742 70.3824 116.275 68.317L128.351 52.0489Z" fill="black"/>
<path d="M88.1852 148.216L106.302 138.639V138.151L88.1852 128.574V120.156L114.415 134.186V142.604L88.1852 156.634V148.216Z" fill="white"/>
<mask id="mask0_1498_112" style="mask-type:alpha" maskUnits="userSpaceOnUse" x="126" y="145" width="50" height="60">
<rect x="126.144" y="145" width="49.0649" height="59.4725" fill="#D9D9D9"/>
</mask>
<g mask="url(#mask0_1498_112)">
<path d="M169.452 173.791C171.718 174.621 173.722 174.737 174.537 176.224C175.452 177.893 175.288 180.8 174.537 182.171C172.235 186.372 151.38 197.583 134.666 198.556C131.561 198.737 129.806 198.737 126.701 198.556C109.964 197.584 88.2756 187.433 86.7671 182.798C86.0791 180.684 86.1682 179.156 86.7671 177.35C87.366 175.544 90.8619 174.633 93.5132 173.993C97.1282 173.121 99.052 172.313 102.434 170.757C111.106 166.768 115.838 155.692 123.412 155.477C126.433 155.391 135.524 155.41 138.118 155.41C147.89 155.409 150.884 166.86 160.531 170.757C164.521 172.369 165.845 172.469 169.452 173.791Z" fill="#FF9011"/>
</g>
<mask id="mask1_1498_112" style="mask-type:alpha" maskUnits="userSpaceOnUse" x="86" y="145" width="50" height="60">
<rect width="49.0649" height="59.4725" transform="matrix(-1 0 0 1 135.065 145)" fill="#D9D9D9"/>
</mask>
<g mask="url(#mask1_1498_112)">
<path d="M91.7575 173.791C89.4917 174.621 87.4871 174.737 86.6722 176.224C85.7574 177.893 85.9214 180.8 86.6722 182.171C88.9739 186.372 109.829 197.583 126.543 198.556C129.649 198.737 131.403 198.737 134.508 198.556C151.246 197.584 172.934 187.433 174.442 182.798C175.13 180.684 175.041 179.156 174.442 177.35C173.843 175.544 170.347 174.633 167.696 173.993C164.081 173.121 162.157 172.313 158.775 170.757C150.104 166.768 145.371 155.692 137.798 155.477C134.776 155.391 125.686 155.41 123.092 155.41C113.319 155.409 110.325 166.86 100.678 170.757C96.6883 172.369 95.3645 172.469 91.7575 173.791Z" fill="#FF9011"/>
</g>
<path d="M234.326 137V78.5H249.806V100.28H262.406V78.5H277.886V137H262.406V113.78H249.806V137H234.326ZM283.071 137L300.711 78.5H319.431L337.071 137H320.691L314.121 108.56C313.521 105.74 312.831 102.68 312.051 99.38C311.271 96.08 310.551 92.96 309.891 90.02H309.531C308.931 92.96 308.271 96.08 307.551 99.38C306.831 102.68 306.141 105.74 305.481 108.56L298.911 137H283.071ZM295.761 124.58V112.61H324.201V124.58H295.761ZM369.255 138.08C365.595 138.08 362.085 137.48 358.725 136.28C355.425 135.02 352.485 133.16 349.905 130.7C347.325 128.18 345.285 125.06 343.785 121.34C342.285 117.56 341.535 113.18 341.535 108.2C341.535 101.66 342.825 96.11 345.405 91.55C347.985 86.93 351.435 83.42 355.755 81.02C360.075 78.62 364.875 77.42 370.155 77.42C373.935 77.42 377.355 78.2 380.415 79.76C383.535 81.26 386.115 83 388.155 84.98L379.695 94.52C378.375 93.32 376.935 92.39 375.375 91.73C373.875 91.07 372.135 90.74 370.155 90.74C367.755 90.74 365.595 91.43 363.675 92.81C361.755 94.13 360.225 96.05 359.085 98.57C357.945 101.09 357.375 104.12 357.375 107.66C357.375 111.32 357.945 114.44 359.085 117.02C360.225 119.54 361.815 121.46 363.855 122.78C365.895 124.1 368.235 124.76 370.875 124.76C372.795 124.76 374.535 124.31 376.095 123.41C377.715 122.51 379.155 121.4 380.415 120.08L388.875 129.44C386.475 132.32 383.595 134.48 380.235 135.92C376.875 137.36 373.215 138.08 369.255 138.08ZM396.04 137V78.5H411.7V100.28H412.06L426.46 78.5H443.56L411.7 122.06V137H396.04ZM427.9 137L416.02 111.98L425.02 99.92L445 137H427.9ZM452.525 137V78.5H492.305V91.46H468.005V100.64H488.705V113.6H468.005V124.04H493.205V137H452.525ZM504.15 137V78.5H525.93C530.13 78.5 534 79.07 537.54 80.21C541.08 81.29 543.93 83.21 546.09 85.97C548.25 88.73 549.33 92.54 549.33 97.4C549.33 102.08 548.25 105.89 546.09 108.83C543.93 111.77 541.08 113.93 537.54 115.31C534 116.69 530.13 117.38 525.93 117.38H519.63V137H504.15ZM519.63 105.14H524.85C527.91 105.14 530.22 104.48 531.78 103.16C533.4 101.84 534.21 99.92 534.21 97.4C534.21 94.88 533.4 93.14 531.78 92.18C530.22 91.22 527.91 90.74 524.85 90.74H519.63V105.14ZM523.14 113.33L533.58 103.07L552.57 137H535.29L523.14 113.33Z" fill="black"/>
<path d="M255.746 216.08C251.906 216.08 247.976 215.39 243.956 214.01C239.996 212.63 236.366 210.53 233.066 207.71L241.886 197.09C244.106 198.77 246.476 200.15 248.996 201.23C251.576 202.25 254.186 202.76 256.826 202.76C259.166 202.76 260.816 202.43 261.776 201.77C262.796 201.11 263.306 200.3 263.306 199.34C263.306 198.2 262.976 197.3 262.316 196.64C261.656 195.98 260.696 195.38 259.436 194.84C258.176 194.3 256.646 193.67 254.846 192.95L247.556 189.89C245.336 189.05 243.266 187.91 241.346 186.47C239.486 184.97 237.986 183.17 236.846 181.07C235.766 178.91 235.226 176.42 235.226 173.6C235.226 170.24 236.156 167.21 238.016 164.51C239.876 161.75 242.486 159.56 245.846 157.94C249.206 156.26 253.106 155.42 257.546 155.42C261.026 155.42 264.506 156.08 267.986 157.4C271.526 158.66 274.706 160.61 277.526 163.25L269.786 172.97C267.686 171.59 265.676 170.54 263.756 169.82C261.836 169.1 259.466 168.74 256.646 168.74C254.966 168.74 253.586 169.07 252.506 169.73C251.426 170.33 250.886 171.32 250.886 172.7C250.886 173.6 251.246 174.35 251.966 174.95C252.686 175.55 253.736 176.12 255.116 176.66C256.496 177.2 258.146 177.83 260.066 178.55L266.816 181.34C269.456 182.3 271.676 183.53 273.476 185.03C275.336 186.47 276.746 188.21 277.706 190.25C278.666 192.29 279.146 194.66 279.146 197.36C279.146 200.66 278.246 203.75 276.446 206.63C274.646 209.45 272.006 211.73 268.526 213.47C265.046 215.21 260.786 216.08 255.746 216.08ZM315.291 216.08C311.631 216.08 308.121 215.48 304.761 214.28C301.461 213.02 298.521 211.16 295.941 208.7C293.361 206.18 291.321 203.06 289.821 199.34C288.321 195.56 287.571 191.18 287.571 186.2C287.571 179.66 288.861 174.11 291.441 169.55C294.021 164.93 297.471 161.42 301.791 159.02C306.111 156.62 310.911 155.42 316.191 155.42C319.971 155.42 323.391 156.2 326.451 157.76C329.571 159.26 332.151 161 334.191 162.98L325.731 172.52C324.411 171.32 322.971 170.39 321.411 169.73C319.911 169.07 318.171 168.74 316.191 168.74C313.791 168.74 311.631 169.43 309.711 170.81C307.791 172.13 306.261 174.05 305.121 176.57C303.981 179.09 303.411 182.12 303.411 185.66C303.411 189.32 303.981 192.44 305.121 195.02C306.261 197.54 307.851 199.46 309.891 200.78C311.931 202.1 314.271 202.76 316.911 202.76C318.831 202.76 320.571 202.31 322.131 201.41C323.751 200.51 325.191 199.4 326.451 198.08L334.911 207.44C332.511 210.32 329.631 212.48 326.271 213.92C322.911 215.36 319.251 216.08 315.291 216.08ZM342.255 215V156.5H357.735V178.28H370.335V156.5H385.815V215H370.335V191.78H357.735V215H342.255ZM418 216.08C413.26 216.08 409.09 214.94 405.49 212.66C401.89 210.38 399.07 206.99 397.03 202.49C395.05 197.93 394.06 192.26 394.06 185.48C394.06 178.88 395.05 173.36 397.03 168.92C399.07 164.42 401.89 161.06 405.49 158.84C409.09 156.56 413.26 155.42 418 155.42C422.74 155.42 426.91 156.56 430.51 158.84C434.11 161.06 436.9 164.42 438.88 168.92C440.92 173.36 441.94 178.88 441.94 185.48C441.94 192.26 440.92 197.93 438.88 202.49C436.9 206.99 434.11 210.38 430.51 212.66C426.91 214.94 422.74 216.08 418 216.08ZM418 202.76C419.68 202.76 421.12 202.13 422.32 200.87C423.52 199.61 424.45 197.72 425.11 195.2C425.77 192.62 426.1 189.38 426.1 185.48C426.1 181.76 425.77 178.67 425.11 176.21C424.45 173.69 423.52 171.83 422.32 170.63C421.12 169.37 419.68 168.74 418 168.74C416.32 168.74 414.88 169.37 413.68 170.63C412.48 171.83 411.55 173.69 410.89 176.21C410.23 178.67 409.9 181.76 409.9 185.48C409.9 189.38 410.23 192.62 410.89 195.2C411.55 197.72 412.48 199.61 413.68 200.87C414.88 202.13 416.32 202.76 418 202.76ZM471.965 216.08C467.225 216.08 463.055 214.94 459.455 212.66C455.855 210.38 453.035 206.99 450.995 202.49C449.015 197.93 448.025 192.26 448.025 185.48C448.025 178.88 449.015 173.36 450.995 168.92C453.035 164.42 455.855 161.06 459.455 158.84C463.055 156.56 467.225 155.42 471.965 155.42C476.705 155.42 480.875 156.56 484.475 158.84C488.075 161.06 490.865 164.42 492.845 168.92C494.885 173.36 495.905 178.88 495.905 185.48C495.905 192.26 494.885 197.93 492.845 202.49C490.865 206.99 488.075 210.38 484.475 212.66C480.875 214.94 476.705 216.08 471.965 216.08ZM471.965 202.76C473.645 202.76 475.085 202.13 476.285 200.87C477.485 199.61 478.415 197.72 479.075 195.2C479.735 192.62 480.065 189.38 480.065 185.48C480.065 181.76 479.735 178.67 479.075 176.21C478.415 173.69 477.485 171.83 476.285 170.63C475.085 169.37 473.645 168.74 471.965 168.74C470.285 168.74 468.845 169.37 467.645 170.63C466.445 171.83 465.515 173.69 464.855 176.21C464.195 178.67 463.865 181.76 463.865 185.48C463.865 189.38 464.195 192.62 464.855 195.2C465.515 197.72 466.445 199.61 467.645 200.87C468.845 202.13 470.285 202.76 471.965 202.76ZM507.57 215V156.5H523.05V202.04H547.98V215H507.57Z" fill="#FF9011"/>
<path d="M93.0872 66.5323L43.5429 71.4174L54.0124 96.2138L145.526 64.0624L140.557 52.1383L134.775 39.2085L93.0872 66.5323Z" fill="white"/>
<path d="M145.628 64.2912C148.425 71.9719 130.432 85.0683 104.897 93.2506C79.3625 101.433 56.8092 103.896 54.0123 96.2157C51.2154 88.5349 69.2339 73.6186 94.7686 65.4363C120.303 57.254 142.831 56.6105 145.628 64.2912Z" fill="white"/>
<path d="M91.6903 63.2257L42.1459 68.1107L52.6154 92.9072L144.129 60.7557L139.16 48.8317L133.378 35.9018L91.6903 63.2257Z" fill="black"/>
<path d="M144.231 60.9845C147.028 68.6653 129.035 81.7617 103.5 89.944C77.9657 98.1263 55.4125 100.59 52.6156 92.909C49.8186 85.2283 67.8372 70.3119 93.3719 62.1296C118.907 53.9473 141.434 53.3038 144.231 60.9845Z" fill="black"/>
<path d="M2.79295 68.2732L67.888 18.8837C68.6515 18.3044 69.0332 18.0148 69.4663 17.8247C69.5447 17.7903 69.6241 17.7584 69.7045 17.7291C70.1489 17.5671 70.625 17.5126 71.5771 17.4034L166.31 6.54551C167.072 6.45813 167.846 6.64049 168.49 7.05657C169.694 7.83313 170.266 9.30333 169.895 10.6865C169.688 11.4563 169.21 12.1251 168.548 12.5691L94.2525 62.4155C93.5405 62.8932 93.1845 63.132 92.7905 63.2892C92.7192 63.3177 92.647 63.3441 92.5741 63.3684C92.1717 63.5026 91.7457 63.55 90.8936 63.6447L5.24237 73.1656C5.06432 73.1854 4.88492 73.1901 4.70607 73.1797L4.2787 73.1548C2.85687 73.072 1.73974 71.9063 1.71751 70.4823C1.70399 69.6167 2.10333 68.7964 2.79295 68.2732Z" fill="black" stroke="white" stroke-width="3"/>
<path d="M79.8329 38.3301C80.8091 37.8133 82.0195 38.1856 82.5363 39.1618C83.0532 40.138 82.6808 41.3483 81.7047 41.8652L79.8329 38.3301ZM29.7564 67.1073L28.8205 65.3397L29.7564 67.1073ZM81.7047 41.8652L30.6922 68.8748L28.8205 65.3397L79.8329 38.3301L81.7047 41.8652ZM26.9677 75.0612L26.9677 88.2409L22.9677 88.2409L22.9677 75.0612L26.9677 75.0612ZM30.6922 68.8748C28.4008 70.088 26.9677 72.4684 26.9677 75.0612L22.9677 75.0612C22.9677 70.9868 25.2198 67.2462 28.8205 65.3397L30.6922 68.8748Z" fill="#FF9011"/>
<path d="M20.8953 95.9152L29.0003 95.9501L31.855 121.662L18.0171 121.602L20.8953 95.9152Z" fill="#FF9011"/>
<path d="M18.4344 94.5215C18.4251 96.6818 18.9465 97.8971 19.9598 98.6041C21.0063 99.3342 22.647 99.5795 25.0316 99.5898C27.4161 99.6001 29.0589 99.3689 30.1116 98.6478C31.131 97.9496 31.6629 96.7388 31.6722 94.5785C31.6815 92.4192 31.1607 90.8813 30.1131 89.8756C29.0624 88.8669 27.4253 88.3389 25.08 88.3288C22.7348 88.3187 21.0932 88.8326 20.0338 89.8322C18.9776 90.8288 18.4437 92.3622 18.4344 94.5215Z" fill="#FF9011" stroke="white" stroke-width="0.6"/>
<path d="M18.1673 121.601C18.1623 122.762 18.8041 123.709 19.9748 124.376C21.1501 125.045 22.8499 125.424 24.9198 125.433C26.9897 125.442 28.6927 125.077 29.8737 124.418C31.0502 123.762 31.7001 122.821 31.7051 121.659C31.7076 121.075 31.547 120.688 31.2635 120.422C30.9742 120.15 30.5363 119.984 29.9439 119.89C29.3531 119.796 28.6292 119.775 27.7856 119.778C27.4475 119.78 27.0888 119.784 26.7127 119.79C26.1576 119.797 25.5645 119.805 24.9441 119.803C24.3236 119.8 23.7306 119.787 23.1756 119.774C22.7995 119.766 22.4409 119.758 22.1029 119.754C21.2593 119.744 20.5353 119.758 19.9436 119.847C19.3505 119.936 18.9112 120.098 18.6195 120.367C18.3337 120.631 18.1698 121.017 18.1673 121.601Z" fill="#FF9011" stroke="#FF9011" stroke-width="0.3"/>
<path d="M164.891 118.475C164.27 116.678 161.73 116.678 161.11 118.475L157.158 129.92C156.957 130.5 156.501 130.957 155.92 131.157L144.475 135.11C142.679 135.73 142.679 138.27 144.475 138.89L155.92 142.843C156.501 143.043 156.957 143.5 157.158 144.08L161.11 155.525C161.73 157.322 164.27 157.322 164.891 155.525L168.843 144.08C169.043 143.5 169.5 143.043 170.081 142.843L181.526 138.89C183.322 138.27 183.322 135.73 181.526 135.11L170.081 131.157C169.5 130.957 169.043 130.5 168.843 129.92L164.891 118.475Z" fill="white" stroke="black" stroke-width="2"/>
</svg>
