<svg width="368" height="122" viewBox="0 0 368 122" fill="none" xmlns="http://www.w3.org/2000/svg">
<path d="M0 59.9987C0 32.3845 22.3858 9.99869 50 9.99869H53C80.6142 9.99869 103 32.3845 103 59.9987V77.9987C103 96.7764 87.7777 111.999 69 111.999H34C15.2223 111.999 0 96.7764 0 77.9987V59.9987Z" fill="black"/>
<path d="M21 106.001C21 103.792 22.7909 102.001 25 102.001H79C81.2091 102.001 83 103.792 83 106.001V114.416C83 115.989 82.0714 117.402 80.5725 117.88C76.4558 119.192 67.0544 121.508 52 121.508C36.9456 121.508 27.5442 119.192 23.4275 117.88C21.9286 117.402 21 115.989 21 114.416V106.001Z" fill="black"/>
<path d="M48.2281 1.14208C49.0138 0.168814 50.4902 0.147594 51.3036 1.09787L63.4759 15.318C64.5779 16.6054 63.6797 18.594 61.9852 18.6184L38.0544 18.9624C36.36 18.9867 35.405 17.0247 36.4695 15.7062L48.2281 1.14208Z" fill="black"/>
<path d="M57.8941 5.15819C58.6937 4.08096 60.3063 4.08096 61.1059 5.15819L68.8218 15.5527C69.8015 16.8724 68.8595 18.7448 67.2159 18.7448H51.7841C50.1405 18.7448 49.1985 16.8724 50.1782 15.5527L57.8941 5.15819Z" fill="black"/>
<path d="M67.64 69.6L63.48 66.84L68.04 60.84L61.2 58.52L62.76 53.92L69.44 56.36V49.28H74.56V56.36L81.24 53.92L82.8 58.52L75.96 60.84L80.52 66.84L76.36 69.6L72 63.64L67.64 69.6Z" fill="white"/>
<path d="M24.4 66.24L36.28 59.96V59.64L24.4 53.36V47.84L41.6 57.04V62.56L24.4 71.76V66.24Z" fill="white"/>
<path d="M69.1227 20.5832C69.7616 19.8074 70.7932 19.487 71.7196 19.8764C73.333 20.5546 76.1031 21.9381 79.5279 24.5283C82.3227 26.642 84.3668 28.6752 85.7053 30.1697C86.8145 31.4081 86.3847 33.2632 84.9214 34.0525C83.708 34.707 82.1964 34.39 81.28 33.3598C80.0907 32.0229 78.3312 30.1988 76.4351 28.7591C74.5224 27.3067 71.838 25.6655 69.8478 24.5033C68.4601 23.693 68.1012 21.8236 69.1227 20.5832Z" fill="white"/>
<mask id="mask0_1242_738" style="mask-type:alpha" maskUnits="userSpaceOnUse" x="49" y="63" width="33" height="40">
<rect x="49" y="63" width="33" height="40" fill="#D9D9D9"/>
</mask>
<g mask="url(#mask0_1242_738)">
<path d="M78.1278 82.3639C79.6518 82.9225 81 83 81.5481 84C82.1634 85.1225 82.0531 87.0782 81.5481 88C80 90.8259 65.9734 98.366 54.7316 99.0205C52.6431 99.1422 51.4631 99.1418 49.3745 99.0205C38.1174 98.3667 23.5304 91.5391 22.5158 88.4218C22.0531 87 22.113 85.9723 22.5158 84.7577C22.9186 83.543 25.2698 82.9305 27.0531 82.5C29.4845 81.913 30.7784 81.3698 33.0531 80.3235C38.8855 77.6407 42.0684 70.1912 47.1622 70.0461C49.1942 69.9883 55.3085 70.0013 57.0531 70.0011C63.6259 70.0003 65.6397 77.7025 72.1281 80.3235C74.8115 81.4074 75.7019 81.4747 78.1278 82.3639Z" fill="#FF9011"/>
</g>
<mask id="mask1_1242_738" style="mask-type:alpha" maskUnits="userSpaceOnUse" x="22" y="63" width="33" height="40">
<rect width="33" height="40" transform="matrix(-1 0 0 1 55 63)" fill="#D9D9D9"/>
</mask>
<g mask="url(#mask1_1242_738)">
<path d="M25.8722 82.3639C24.3482 82.9225 23 83 22.4519 84C21.8366 85.1225 21.9469 87.0782 22.4519 88C24 90.8259 38.0266 98.366 49.2684 99.0205C51.3569 99.1422 52.5369 99.1418 54.6255 99.0205C65.8826 98.3667 80.4696 91.5391 81.4842 88.4218C81.9469 87 81.887 85.9723 81.4842 84.7577C81.0814 83.543 78.7302 82.9305 76.9469 82.5C74.5155 81.913 73.2216 81.3698 70.9469 80.3235C65.1145 77.6407 61.9316 70.1912 56.8378 70.0461C54.8058 69.9883 48.6915 70.0013 46.9469 70.0011C40.3741 70.0003 38.3603 77.7025 31.8719 80.3235C29.1885 81.4074 28.2981 81.4747 25.8722 82.3639Z" fill="#FF9011"/>
</g>
<path d="M127.48 58V20.3H137.572L143.894 37.12L146.968 45.588H147.2C146.968 43.5387 146.678 41.2187 146.33 38.628C145.982 35.9987 145.808 33.524 145.808 31.204V20.3H155.32V58H145.228L138.906 41.122L135.832 32.712H135.6C135.832 34.8387 136.122 37.1973 136.47 39.788C136.818 42.34 136.992 44.776 136.992 47.096V58H127.48ZM176.293 58.696C173.819 58.696 171.692 58.348 169.913 57.652C168.135 56.9173 166.665 55.8927 165.505 54.578C164.384 53.2247 163.533 51.62 162.953 49.764C162.412 47.8693 162.141 45.7427 162.141 43.384V20.3H172.117V44.544C172.117 45.6267 172.233 46.5933 172.465 47.444C172.736 48.256 173.181 48.9133 173.799 49.416C174.418 49.88 175.249 50.112 176.293 50.112C177.376 50.112 178.227 49.88 178.845 49.416C179.464 48.9133 179.909 48.256 180.179 47.444C180.45 46.5933 180.585 45.6267 180.585 44.544V20.3H190.213V43.384C190.213 45.7427 189.943 47.8693 189.401 49.764C188.899 51.62 188.087 53.2247 186.965 54.578C185.844 55.8927 184.394 56.9173 182.615 57.652C180.875 58.348 178.768 58.696 176.293 58.696ZM210.723 58.696C208.248 58.696 205.715 58.2513 203.125 57.362C200.573 56.4727 198.233 55.1193 196.107 53.302L201.791 46.458C203.221 47.5407 204.749 48.43 206.373 49.126C208.035 49.7833 209.717 50.112 211.419 50.112C212.927 50.112 213.99 49.8993 214.609 49.474C215.266 49.0487 215.595 48.5267 215.595 47.908C215.595 47.1733 215.382 46.5933 214.957 46.168C214.531 45.7427 213.913 45.356 213.101 45.008C212.289 44.66 211.303 44.254 210.143 43.79L205.445 41.818C204.014 41.2767 202.68 40.542 201.443 39.614C200.244 38.6473 199.277 37.4873 198.543 36.134C197.847 34.742 197.499 33.1373 197.499 31.32C197.499 29.1547 198.098 27.202 199.297 25.462C200.495 23.6833 202.177 22.272 204.343 21.228C206.508 20.1453 209.021 19.604 211.883 19.604C214.125 19.604 216.368 20.0293 218.611 20.88C220.892 21.692 222.941 22.9487 224.759 24.65L219.771 30.914C218.417 30.0247 217.122 29.348 215.885 28.884C214.647 28.42 213.12 28.188 211.303 28.188C210.22 28.188 209.331 28.4007 208.635 28.826C207.939 29.2127 207.591 29.8507 207.591 30.74C207.591 31.32 207.823 31.8033 208.287 32.19C208.751 32.5767 209.427 32.944 210.317 33.292C211.206 33.64 212.269 34.046 213.507 34.51L217.857 36.308C219.558 36.9267 220.989 37.7193 222.149 38.686C223.347 39.614 224.256 40.7353 224.875 42.05C225.493 43.3647 225.803 44.892 225.803 46.632C225.803 48.7587 225.223 50.75 224.063 52.606C222.903 54.4233 221.201 55.8927 218.959 57.014C216.716 58.1353 213.971 58.696 210.723 58.696Z" fill="#FF9011"/>
<path d="M127.364 108V70.3H137.34V84.336H145.46V70.3H155.436V108H145.46V93.036H137.34V108H127.364ZM158.777 108L170.145 70.3H182.209L193.577 108H183.021L178.787 89.672C178.401 87.8547 177.956 85.8827 177.453 83.756C176.951 81.6293 176.487 79.6187 176.061 77.724H175.829C175.443 79.6187 175.017 81.6293 174.553 83.756C174.089 85.8827 173.645 87.8547 173.219 89.672L168.985 108H158.777ZM166.955 99.996V92.282H185.283V99.996H166.955ZM214.319 108.696C211.96 108.696 209.698 108.309 207.533 107.536C205.406 106.724 203.511 105.525 201.849 103.94C200.186 102.316 198.871 100.305 197.905 97.908C196.938 95.472 196.455 92.6493 196.455 89.44C196.455 85.2253 197.286 81.6487 198.949 78.71C200.611 75.7327 202.835 73.4707 205.619 71.924C208.403 70.3773 211.496 69.604 214.899 69.604C217.335 69.604 219.539 70.1067 221.511 71.112C223.521 72.0787 225.184 73.2 226.499 74.476L221.047 80.624C220.196 79.8507 219.268 79.2513 218.263 78.826C217.296 78.4007 216.175 78.188 214.899 78.188C213.352 78.188 211.96 78.6327 210.723 79.522C209.485 80.3727 208.499 81.61 207.765 83.234C207.03 84.858 206.663 86.8107 206.663 89.092C206.663 91.4507 207.03 93.4613 207.765 95.124C208.499 96.748 209.524 97.9853 210.839 98.836C212.153 99.6867 213.661 100.112 215.363 100.112C216.6 100.112 217.721 99.822 218.727 99.242C219.771 98.662 220.699 97.9467 221.511 97.096L226.963 103.128C225.416 104.984 223.56 106.376 221.395 107.304C219.229 108.232 216.871 108.696 214.319 108.696ZM231.58 108V70.3H241.672V84.336H241.904L251.184 70.3H262.204L241.672 98.372V108H231.58ZM252.112 108L244.456 91.876L250.256 84.104L263.132 108H252.112ZM267.981 108V70.3H293.617V78.652H277.957V84.568H291.297V92.92H277.957V99.648H294.197V108H267.981ZM301.251 108V70.3H315.287C317.993 70.3 320.487 70.6673 322.769 71.402C325.05 72.098 326.887 73.3353 328.279 75.114C329.671 76.8927 330.367 79.348 330.367 82.48C330.367 85.496 329.671 87.9513 328.279 89.846C326.887 91.7407 325.05 93.1327 322.769 94.022C320.487 94.9113 317.993 95.356 315.287 95.356H311.227V108H301.251ZM311.227 87.468H314.591C316.563 87.468 318.051 87.0427 319.057 86.192C320.101 85.3413 320.623 84.104 320.623 82.48C320.623 80.856 320.101 79.7347 319.057 79.116C318.051 78.4973 316.563 78.188 314.591 78.188H311.227V87.468ZM313.489 92.746L320.217 86.134L332.455 108H321.319L313.489 92.746ZM349.832 108.696C347.357 108.696 344.825 108.251 342.234 107.362C339.682 106.473 337.343 105.119 335.216 103.302L340.9 96.458C342.331 97.5407 343.858 98.43 345.482 99.126C347.145 99.7833 348.827 100.112 350.528 100.112C352.036 100.112 353.099 99.8993 353.718 99.474C354.375 99.0487 354.704 98.5267 354.704 97.908C354.704 97.1733 354.491 96.5933 354.066 96.168C353.641 95.7427 353.022 95.356 352.21 95.008C351.398 94.66 350.412 94.254 349.252 93.79L344.554 91.818C343.123 91.2767 341.789 90.542 340.552 89.614C339.353 88.6473 338.387 87.4873 337.652 86.134C336.956 84.742 336.608 83.1373 336.608 81.32C336.608 79.1547 337.207 77.202 338.406 75.462C339.605 73.6833 341.287 72.272 343.452 71.228C345.617 70.1453 348.131 69.604 350.992 69.604C353.235 69.604 355.477 70.0293 357.72 70.88C360.001 71.692 362.051 72.9487 363.868 74.65L358.88 80.914C357.527 80.0247 356.231 79.348 354.994 78.884C353.757 78.42 352.229 78.188 350.412 78.188C349.329 78.188 348.44 78.4007 347.744 78.826C347.048 79.2127 346.7 79.8507 346.7 80.74C346.7 81.32 346.932 81.8033 347.396 82.19C347.86 82.5767 348.537 82.944 349.426 83.292C350.315 83.64 351.379 84.046 352.616 84.51L356.966 86.308C358.667 86.9267 360.098 87.7193 361.258 88.686C362.457 89.614 363.365 90.7353 363.984 92.05C364.603 93.3647 364.912 94.892 364.912 96.632C364.912 98.7587 364.332 100.75 363.172 102.606C362.012 104.423 360.311 105.893 358.068 107.014C355.825 108.135 353.08 108.696 349.832 108.696Z" fill="black"/>
</svg>
