<svg width="548" height="191" viewBox="0 0 548 191" fill="none" xmlns="http://www.w3.org/2000/svg">
<path d="M232.46 90V31.5H272.51V44.46H247.94V55.62H269V68.58H247.94V90H232.46ZM283.185 90V31.5H304.965C309.165 31.5 313.035 32.07 316.575 33.21C320.115 34.29 322.965 36.21 325.125 38.97C327.285 41.73 328.365 45.54 328.365 50.4C328.365 55.08 327.285 58.89 325.125 61.83C322.965 64.77 320.115 66.93 316.575 68.31C313.035 69.69 309.165 70.38 304.965 70.38H298.665V90H283.185ZM298.665 58.14H303.885C306.945 58.14 309.255 57.48 310.815 56.16C312.435 54.84 313.245 52.92 313.245 50.4C313.245 47.88 312.435 46.14 310.815 45.18C309.255 44.22 306.945 43.74 303.885 43.74H298.665V58.14ZM302.175 66.33L312.615 56.07L331.605 90H314.325L302.175 66.33ZM337.87 90V77.04H351.19V44.46H337.87V31.5H379.99V44.46H366.67V77.04H379.99V90H337.87ZM391.655 90V31.5H408.485C414.065 31.5 418.985 32.49 423.245 34.47C427.565 36.39 430.925 39.48 433.325 43.74C435.785 48 437.015 53.58 437.015 60.48C437.015 67.38 435.815 73.02 433.415 77.4C431.015 81.72 427.715 84.9 423.515 86.94C419.375 88.98 414.665 90 409.385 90H391.655ZM407.135 77.58H407.675C410.195 77.58 412.475 77.1 414.515 76.14C416.555 75.18 418.175 73.47 419.375 71.01C420.575 68.55 421.175 65.04 421.175 60.48C421.175 55.92 420.575 52.47 419.375 50.13C418.175 47.73 416.555 46.11 414.515 45.27C412.475 44.37 410.195 43.92 407.675 43.92H407.135V77.58ZM439.86 90L457.5 31.5H476.22L493.86 90H477.48L470.91 61.56C470.31 58.74 469.62 55.68 468.84 52.38C468.06 49.08 467.34 45.96 466.68 43.02H466.32C465.72 45.96 465.06 49.08 464.34 52.38C463.62 55.68 462.93 58.74 462.27 61.56L455.7 90H439.86ZM452.55 77.58V65.61H480.99V77.58H452.55ZM513.084 90V70.65L494.544 31.5H511.104L515.964 44.28C516.744 46.5 517.524 48.69 518.304 50.85C519.144 53.01 519.954 55.26 520.734 57.6H521.094C521.934 55.26 522.774 53.01 523.614 50.85C524.454 48.69 525.264 46.5 526.044 44.28L530.904 31.5H547.104L528.564 70.65V90H513.084Z" fill="black"/>
<path d="M0.000244141 93.7669C0.000244141 50.5488 35.0355 15.5136 78.2536 15.5136H82.9488C126.167 15.5136 161.202 50.5488 161.202 93.7669V121.938C161.202 151.326 137.378 175.15 107.99 175.15H53.2125C23.8242 175.15 0.000244141 151.326 0.000244141 121.938V93.7669Z" fill="black"/>
<path d="M32.8667 165.763C32.8667 162.306 35.6695 159.503 39.1269 159.503H123.641C127.098 159.503 129.901 162.306 129.901 165.763V178.934C129.901 181.396 128.447 183.608 126.102 184.355C119.659 186.408 104.945 190.034 81.3837 190.034C57.8226 190.034 43.1088 186.408 36.6658 184.355C34.32 183.608 32.8667 181.396 32.8667 178.934V165.763Z" fill="black"/>
<path d="M79.5732 1.16385C80.803 -0.359376 83.1135 -0.392587 84.3866 1.09466L103.437 23.3502C105.162 25.365 103.756 28.4773 101.104 28.5154L63.6508 29.0538C60.9989 29.0919 59.5043 26.0213 61.1703 23.9577L79.5732 1.16385Z" fill="black"/>
<path d="M95.3512 6.04893C96.6027 4.363 99.1265 4.363 100.378 6.04893L112.454 22.317C113.987 24.3824 112.513 27.3129 109.941 27.3129H85.7887C83.2164 27.3129 81.7421 24.3824 83.2753 22.317L95.3512 6.04893Z" fill="black"/>
<mask id="mask0_1498_40" style="mask-type:alpha" maskUnits="userSpaceOnUse" x="93" y="99" width="50" height="60">
<rect x="93.3566" y="99.0762" width="49.0649" height="59.4725" fill="#D9D9D9"/>
</mask>
<g mask="url(#mask0_1498_40)">
<path d="M136.664 127.867C138.93 128.698 140.935 128.813 141.75 130.3C142.664 131.969 142.5 134.877 141.75 136.247C139.448 140.449 118.593 151.659 101.878 152.633C98.7732 152.813 97.0187 152.813 93.9134 152.633C77.1761 151.66 55.488 141.509 53.9795 136.874C53.2915 134.76 53.3806 133.232 53.9795 131.426C54.5784 129.62 58.0743 128.71 60.7256 128.07C64.3406 127.197 66.2644 126.389 69.6465 124.833C78.3182 120.845 83.0505 109.769 90.6241 109.553C93.6453 109.467 102.736 109.486 105.33 109.486C115.103 109.485 118.097 120.937 127.744 124.833C131.733 126.445 133.057 126.545 136.664 127.867Z" fill="#FF9011"/>
</g>
<mask id="mask1_1498_40" style="mask-type:alpha" maskUnits="userSpaceOnUse" x="53" y="99" width="50" height="60">
<rect width="49.0649" height="59.4725" transform="matrix(-1 0 0 1 102.277 99.0762)" fill="#D9D9D9"/>
</mask>
<g mask="url(#mask1_1498_40)">
<path d="M58.9698 127.867C56.7039 128.698 54.6994 128.813 53.8845 130.3C52.9697 131.969 53.1337 134.877 53.8845 136.247C56.1862 140.449 77.0412 151.659 93.7556 152.633C96.8609 152.813 98.6153 152.813 101.721 152.633C118.458 151.66 140.146 141.509 141.655 136.874C142.343 134.76 142.253 133.232 141.655 131.426C141.056 129.62 137.56 128.71 134.908 128.07C131.293 127.197 129.37 126.389 125.988 124.833C117.316 120.845 112.584 109.769 105.01 109.553C101.989 109.467 92.8978 109.486 90.304 109.486C80.5315 109.485 77.5373 120.937 67.8903 124.833C63.9006 126.445 62.5768 126.545 58.9698 127.867Z" fill="#FF9011"/>
</g>
<path d="M101.591 167.927C102.898 168.683 102.926 170.56 101.643 171.356L84.055 182.275C82.7227 183.102 81.0002 182.144 81.0002 180.576V159.47C81.0002 157.929 82.6693 156.967 84.0026 157.739L101.591 167.927Z" fill="white"/>
<path d="M98.956 168.47C97.6806 169.232 97.6521 171.07 98.9033 171.871L114.103 181.606C115.434 182.459 117.182 181.503 117.182 179.922V161.103C117.182 159.55 115.489 158.59 114.156 159.386L98.956 168.47Z" fill="white"/>
<path d="M105.741 170.552C105.741 172.253 105.327 173.188 104.547 173.727C103.733 174.289 102.452 174.479 100.564 174.479C98.6753 174.479 97.3938 174.289 96.5805 173.727C95.8003 173.188 95.3858 172.253 95.3858 170.552C95.3858 168.851 95.801 167.655 96.6167 166.879C97.4355 166.1 98.7146 165.689 100.564 165.689C102.412 165.689 103.692 166.1 104.51 166.879C105.326 167.655 105.741 168.851 105.741 170.552Z" fill="white" stroke="white" stroke-width="0.6"/>
<path d="M55.3976 102.175L73.5146 92.598V92.11L55.3976 82.533V74.115L81.6276 88.145V96.563L55.3976 110.593V102.175Z" fill="white"/>
<rect x="123.641" y="75.6035" width="12.5205" height="31.3013" rx="2" fill="white"/>
<rect x="169.761" y="118.947" width="24.38" height="37.4242" rx="2" transform="rotate(7.26601 169.761 118.947)" fill="black"/>
<rect x="174.418" y="146.033" width="10.9555" height="28.1712" rx="1" fill="black"/>
<rect x="177.548" y="160.119" width="4.6952" height="29.7363" fill="black"/>
<path d="M232.22 168V109.5H247.7V131.28H260.3V109.5H275.78V168H260.3V144.78H247.7V168H232.22ZM280.965 168L298.605 109.5H317.325L334.965 168H318.585L312.015 139.56C311.415 136.74 310.725 133.68 309.945 130.38C309.165 127.08 308.445 123.96 307.785 121.02H307.425C306.825 123.96 306.165 127.08 305.445 130.38C304.725 133.68 304.035 136.74 303.375 139.56L296.805 168H280.965ZM293.655 155.58V143.61H322.095V155.58H293.655ZM367.15 169.08C363.49 169.08 359.98 168.48 356.62 167.28C353.32 166.02 350.38 164.16 347.8 161.7C345.22 159.18 343.18 156.06 341.68 152.34C340.18 148.56 339.43 144.18 339.43 139.2C339.43 132.66 340.72 127.11 343.3 122.55C345.88 117.93 349.33 114.42 353.65 112.02C357.97 109.62 362.77 108.42 368.05 108.42C371.83 108.42 375.25 109.2 378.31 110.76C381.43 112.26 384.01 114 386.05 115.98L377.59 125.52C376.27 124.32 374.83 123.39 373.27 122.73C371.77 122.07 370.03 121.74 368.05 121.74C365.65 121.74 363.49 122.43 361.57 123.81C359.65 125.13 358.12 127.05 356.98 129.57C355.84 132.09 355.27 135.12 355.27 138.66C355.27 142.32 355.84 145.44 356.98 148.02C358.12 150.54 359.71 152.46 361.75 153.78C363.79 155.1 366.13 155.76 368.77 155.76C370.69 155.76 372.43 155.31 373.99 154.41C375.61 153.51 377.05 152.4 378.31 151.08L386.77 160.44C384.37 163.32 381.49 165.48 378.13 166.92C374.77 168.36 371.11 169.08 367.15 169.08ZM393.935 168V109.5H409.595V131.28H409.955L424.355 109.5H441.455L409.595 153.06V168H393.935ZM425.795 168L413.915 142.98L422.915 130.92L442.895 168H425.795ZM469.499 169.08C465.659 169.08 461.729 168.39 457.709 167.01C453.749 165.63 450.119 163.53 446.819 160.71L455.639 150.09C457.859 151.77 460.229 153.15 462.749 154.23C465.329 155.25 467.939 155.76 470.579 155.76C472.919 155.76 474.569 155.43 475.529 154.77C476.549 154.11 477.059 153.3 477.059 152.34C477.059 151.2 476.729 150.3 476.069 149.64C475.409 148.98 474.449 148.38 473.189 147.84C471.929 147.3 470.399 146.67 468.599 145.95L461.309 142.89C459.089 142.05 457.019 140.91 455.099 139.47C453.239 137.97 451.739 136.17 450.599 134.07C449.519 131.91 448.979 129.42 448.979 126.6C448.979 123.24 449.909 120.21 451.769 117.51C453.629 114.75 456.239 112.56 459.599 110.94C462.959 109.26 466.859 108.42 471.299 108.42C474.779 108.42 478.259 109.08 481.739 110.4C485.279 111.66 488.459 113.61 491.279 116.25L483.539 125.97C481.439 124.59 479.429 123.54 477.509 122.82C475.589 122.1 473.219 121.74 470.399 121.74C468.719 121.74 467.339 122.07 466.259 122.73C465.179 123.33 464.639 124.32 464.639 125.7C464.639 126.6 464.999 127.35 465.719 127.95C466.439 128.55 467.489 129.12 468.869 129.66C470.249 130.2 471.899 130.83 473.819 131.55L480.569 134.34C483.209 135.3 485.429 136.53 487.229 138.03C489.089 139.47 490.499 141.21 491.459 143.25C492.419 145.29 492.899 147.66 492.899 150.36C492.899 153.66 491.999 156.75 490.199 159.63C488.399 162.45 485.759 164.73 482.279 166.47C478.799 168.21 474.539 169.08 469.499 169.08Z" fill="#FF9011"/>
</svg>
