<svg width="616" height="229" viewBox="0 0 616 229" fill="none" xmlns="http://www.w3.org/2000/svg">
<path d="M208.22 128.5V70H223.7V91.78H236.3V70H251.78V128.5H236.3V105.28H223.7V128.5H208.22ZM256.965 128.5L274.605 70H293.325L310.965 128.5H294.585L288.015 100.06C287.415 97.24 286.725 94.18 285.945 90.88C285.165 87.58 284.445 84.46 283.785 81.52H283.425C282.825 84.46 282.165 87.58 281.445 90.88C280.725 94.18 280.035 97.24 279.375 100.06L272.805 128.5H256.965ZM269.655 116.08V104.11H298.095V116.08H269.655ZM343.15 129.58C339.49 129.58 335.98 128.98 332.62 127.78C329.32 126.52 326.38 124.66 323.8 122.2C321.22 119.68 319.18 116.56 317.68 112.84C316.18 109.06 315.43 104.68 315.43 99.7C315.43 93.16 316.72 87.61 319.3 83.05C321.88 78.43 325.33 74.92 329.65 72.52C333.97 70.12 338.77 68.92 344.05 68.92C347.83 68.92 351.25 69.7 354.31 71.26C357.43 72.76 360.01 74.5 362.05 76.48L353.59 86.02C352.27 84.82 350.83 83.89 349.27 83.23C347.77 82.57 346.03 82.24 344.05 82.24C341.65 82.24 339.49 82.93 337.57 84.31C335.65 85.63 334.12 87.55 332.98 90.07C331.84 92.59 331.27 95.62 331.27 99.16C331.27 102.82 331.84 105.94 332.98 108.52C334.12 111.04 335.71 112.96 337.75 114.28C339.79 115.6 342.13 116.26 344.77 116.26C346.69 116.26 348.43 115.81 349.99 114.91C351.61 114.01 353.05 112.9 354.31 111.58L362.77 120.94C360.37 123.82 357.49 125.98 354.13 127.42C350.77 128.86 347.11 129.58 343.15 129.58ZM369.935 128.5V70H385.595V91.78H385.955L400.355 70H417.455L385.595 113.56V128.5H369.935ZM401.795 128.5L389.915 103.48L398.915 91.42L418.895 128.5H401.795ZM426.42 128.5V70H466.2V82.96H441.9V92.14H462.6V105.1H441.9V115.54H467.1V128.5H426.42ZM478.044 128.5V70H499.824C504.024 70 507.894 70.57 511.434 71.71C514.974 72.79 517.824 74.71 519.984 77.47C522.144 80.23 523.224 84.04 523.224 88.9C523.224 93.58 522.144 97.39 519.984 100.33C517.824 103.27 514.974 105.43 511.434 106.81C507.894 108.19 504.024 108.88 499.824 108.88H493.524V128.5H478.044ZM493.524 96.64H498.744C501.804 96.64 504.114 95.98 505.674 94.66C507.294 93.34 508.104 91.42 508.104 88.9C508.104 86.38 507.294 84.64 505.674 83.68C504.114 82.72 501.804 82.24 498.744 82.24H493.524V96.64ZM497.034 104.83L507.474 94.57L526.464 128.5H509.184L497.034 104.83ZM553.429 129.58C549.589 129.58 545.659 128.89 541.639 127.51C537.679 126.13 534.049 124.03 530.749 121.21L539.569 110.59C541.789 112.27 544.159 113.65 546.679 114.73C549.259 115.75 551.869 116.26 554.509 116.26C556.849 116.26 558.499 115.93 559.459 115.27C560.479 114.61 560.989 113.8 560.989 112.84C560.989 111.7 560.659 110.8 559.999 110.14C559.339 109.48 558.379 108.88 557.119 108.34C555.859 107.8 554.329 107.17 552.529 106.45L545.239 103.39C543.019 102.55 540.949 101.41 539.029 99.97C537.169 98.47 535.669 96.67 534.529 94.57C533.449 92.41 532.909 89.92 532.909 87.1C532.909 83.74 533.839 80.71 535.699 78.01C537.559 75.25 540.169 73.06 543.529 71.44C546.889 69.76 550.789 68.92 555.229 68.92C558.709 68.92 562.189 69.58 565.669 70.9C569.209 72.16 572.389 74.11 575.209 76.75L567.469 86.47C565.369 85.09 563.359 84.04 561.439 83.32C559.519 82.6 557.149 82.24 554.329 82.24C552.649 82.24 551.269 82.57 550.189 83.23C549.109 83.83 548.569 84.82 548.569 86.2C548.569 87.1 548.929 87.85 549.649 88.45C550.369 89.05 551.419 89.62 552.799 90.16C554.179 90.7 555.829 91.33 557.749 92.05L564.499 94.84C567.139 95.8 569.359 97.03 571.159 98.53C573.019 99.97 574.429 101.71 575.389 103.75C576.349 105.79 576.829 108.16 576.829 110.86C576.829 114.16 575.929 117.25 574.129 120.13C572.329 122.95 569.689 125.23 566.209 126.97C562.729 128.71 558.469 129.58 553.429 129.58Z" fill="black"/>
<path d="M222.26 206.5V160.96H205.43V148H254.57V160.96H237.74V206.5H222.26ZM283.965 207.58C279.225 207.58 275.055 206.44 271.455 204.16C267.855 201.88 265.035 198.49 262.995 193.99C261.015 189.43 260.025 183.76 260.025 176.98C260.025 170.38 261.015 164.86 262.995 160.42C265.035 155.92 267.855 152.56 271.455 150.34C275.055 148.06 279.225 146.92 283.965 146.92C288.705 146.92 292.875 148.06 296.475 150.34C300.075 152.56 302.865 155.92 304.845 160.42C306.885 164.86 307.905 170.38 307.905 176.98C307.905 183.76 306.885 189.43 304.845 193.99C302.865 198.49 300.075 201.88 296.475 204.16C292.875 206.44 288.705 207.58 283.965 207.58ZM283.965 194.26C285.645 194.26 287.085 193.63 288.285 192.37C289.485 191.11 290.415 189.22 291.075 186.7C291.735 184.12 292.065 180.88 292.065 176.98C292.065 173.26 291.735 170.17 291.075 167.71C290.415 165.19 289.485 163.33 288.285 162.13C287.085 160.87 285.645 160.24 283.965 160.24C282.285 160.24 280.845 160.87 279.645 162.13C278.445 163.33 277.515 165.19 276.855 167.71C276.195 170.17 275.865 173.26 275.865 176.98C275.865 180.88 276.195 184.12 276.855 186.7C277.515 189.22 278.445 191.11 279.645 192.37C280.845 193.63 282.285 194.26 283.965 194.26ZM337.93 207.58C333.19 207.58 329.02 206.44 325.42 204.16C321.82 201.88 319 198.49 316.96 193.99C314.98 189.43 313.99 183.76 313.99 176.98C313.99 170.38 314.98 164.86 316.96 160.42C319 155.92 321.82 152.56 325.42 150.34C329.02 148.06 333.19 146.92 337.93 146.92C342.67 146.92 346.84 148.06 350.44 150.34C354.04 152.56 356.83 155.92 358.81 160.42C360.85 164.86 361.87 170.38 361.87 176.98C361.87 183.76 360.85 189.43 358.81 193.99C356.83 198.49 354.04 201.88 350.44 204.16C346.84 206.44 342.67 207.58 337.93 207.58ZM337.93 194.26C339.61 194.26 341.05 193.63 342.25 192.37C343.45 191.11 344.38 189.22 345.04 186.7C345.7 184.12 346.03 180.88 346.03 176.98C346.03 173.26 345.7 170.17 345.04 167.71C344.38 165.19 343.45 163.33 342.25 162.13C341.05 160.87 339.61 160.24 337.93 160.24C336.25 160.24 334.81 160.87 333.61 162.13C332.41 163.33 331.48 165.19 330.82 167.71C330.16 170.17 329.83 173.26 329.83 176.98C329.83 180.88 330.16 184.12 330.82 186.7C331.48 189.22 332.41 191.11 333.61 192.37C334.81 193.63 336.25 194.26 337.93 194.26ZM373.535 206.5V148H389.015V193.54H413.945V206.5H373.535ZM424.62 206.5V148H445.5C449.58 148 453.27 148.42 456.57 149.26C459.93 150.1 462.57 151.57 464.49 153.67C466.47 155.77 467.46 158.74 467.46 162.58C467.46 165.1 466.65 167.62 465.03 170.14C463.47 172.6 460.98 174.28 457.56 175.18V175.54C461.7 176.32 464.79 177.82 466.83 180.04C468.93 182.26 469.98 185.32 469.98 189.22C469.98 193.24 468.96 196.54 466.92 199.12C464.88 201.64 462.15 203.5 458.73 204.7C455.31 205.9 451.5 206.5 447.3 206.5H424.62ZM440.1 171.04H445.14C447.66 171.04 449.49 170.47 450.63 169.33C451.77 168.19 452.34 166.72 452.34 164.92C452.34 163.12 451.77 161.83 450.63 161.05C449.49 160.27 447.66 159.88 445.14 159.88H440.1V171.04ZM440.1 194.62H446.22C449.28 194.62 451.47 194.05 452.79 192.91C454.17 191.77 454.86 190.12 454.86 187.96C454.86 185.8 454.17 184.24 452.79 183.28C451.47 182.32 449.28 181.84 446.22 181.84H440.1V194.62ZM499.824 207.58C495.084 207.58 490.914 206.44 487.314 204.16C483.714 201.88 480.894 198.49 478.854 193.99C476.874 189.43 475.884 183.76 475.884 176.98C475.884 170.38 476.874 164.86 478.854 160.42C480.894 155.92 483.714 152.56 487.314 150.34C490.914 148.06 495.084 146.92 499.824 146.92C504.564 146.92 508.734 148.06 512.334 150.34C515.934 152.56 518.724 155.92 520.704 160.42C522.744 164.86 523.764 170.38 523.764 176.98C523.764 183.76 522.744 189.43 520.704 193.99C518.724 198.49 515.934 201.88 512.334 204.16C508.734 206.44 504.564 207.58 499.824 207.58ZM499.824 194.26C501.504 194.26 502.944 193.63 504.144 192.37C505.344 191.11 506.274 189.22 506.934 186.7C507.594 184.12 507.924 180.88 507.924 176.98C507.924 173.26 507.594 170.17 506.934 167.71C506.274 165.19 505.344 163.33 504.144 162.13C502.944 160.87 501.504 160.24 499.824 160.24C498.144 160.24 496.704 160.87 495.504 162.13C494.304 163.33 493.374 165.19 492.714 167.71C492.054 170.17 491.724 173.26 491.724 176.98C491.724 180.88 492.054 184.12 492.714 186.7C493.374 189.22 494.304 191.11 495.504 192.37C496.704 193.63 498.144 194.26 499.824 194.26ZM527.149 206.5L544.069 176.44L528.139 148H545.419L550.099 157.54C550.759 158.86 551.449 160.33 552.169 161.95C552.889 163.57 553.669 165.34 554.509 167.26H554.869C555.529 165.34 556.189 163.57 556.849 161.95C557.509 160.33 558.139 158.86 558.739 157.54L562.879 148H579.439L563.509 177.16L580.429 206.5H563.149L557.749 196.06C556.969 194.5 556.219 192.94 555.499 191.38C554.779 189.82 554.029 188.14 553.249 186.34H552.889C552.229 188.14 551.539 189.82 550.819 191.38C550.159 192.94 549.469 194.5 548.749 196.06L543.709 206.5H527.149Z" fill="#FF9011"/>
<path d="M8.00024 131.767C8.00024 88.5488 43.0355 53.5136 86.2536 53.5136H90.9488C134.167 53.5136 169.202 88.5488 169.202 131.767V159.938C169.202 189.326 145.378 213.15 115.99 213.15H61.2125C31.8242 213.15 8.00024 189.326 8.00024 159.938V131.767Z" fill="black"/>
<path d="M40.8667 203.763C40.8667 200.306 43.6695 197.503 47.1269 197.503H131.641C135.098 197.503 137.901 200.306 137.901 203.763V216.934C137.901 219.396 136.447 221.608 134.102 222.355C127.659 224.408 112.945 228.034 89.3837 228.034C65.8226 228.034 51.1088 224.408 44.6658 222.355C42.32 221.608 40.8667 219.396 40.8667 216.934V203.763Z" fill="black"/>
<path d="M87.5732 39.1638C88.803 37.6406 91.1135 37.6074 92.3866 39.0947L111.437 61.3502C113.162 63.365 111.756 66.4773 109.104 66.5154L71.6508 67.0538C68.9989 67.0919 67.5043 64.0213 69.1703 61.9577L87.5732 39.1638Z" fill="black"/>
<path d="M103.351 44.0489C104.603 42.363 107.126 42.363 108.378 44.0489L120.454 60.317C121.987 62.3824 120.513 65.3129 117.941 65.3129H93.7887C91.2164 65.3129 89.7421 62.3824 91.2753 60.317L103.351 44.0489Z" fill="black"/>
<path d="M129.285 128.696C129.285 130.82 129.542 132.812 130.054 134.672L143.48 120.5C142.777 119.182 141.905 118.171 140.865 117.468C139.84 116.765 138.638 116.413 137.261 116.413C134.683 116.413 132.706 117.512 131.329 119.709C129.967 121.892 129.285 124.887 129.285 128.696ZM131.087 137.111C132.537 139.689 134.595 140.979 137.261 140.979C139.781 140.979 141.737 139.887 143.128 137.705C144.52 135.507 145.216 132.504 145.216 128.696C145.216 127.641 145.15 126.645 145.018 125.708C144.886 124.755 144.703 123.847 144.469 122.983L131.087 137.111ZM126.275 128.696C126.275 126.777 126.48 124.924 126.89 123.137C127.301 121.35 127.938 119.768 128.802 118.391C129.666 117.014 130.794 115.915 132.186 115.095C133.592 114.26 135.284 113.842 137.261 113.842C139.239 113.842 140.924 114.26 142.315 115.095C143.721 115.915 144.864 117.014 145.743 118.391C146.622 119.768 147.259 121.35 147.655 123.137C148.05 124.924 148.248 126.777 148.248 128.696C148.248 130.615 148.05 132.468 147.655 134.255C147.259 136.042 146.629 137.617 145.765 138.979C144.901 140.341 143.765 141.44 142.359 142.275C140.968 143.095 139.268 143.505 137.261 143.505C135.255 143.505 133.548 143.095 132.142 142.275C130.75 141.44 129.615 140.341 128.736 138.979C127.872 137.617 127.249 136.042 126.868 134.255C126.473 132.468 126.275 130.615 126.275 128.696Z" fill="white"/>
<path d="M130.054 134.672L128.126 135.204L129.068 138.622L131.506 136.048L130.054 134.672ZM143.48 120.5L144.932 121.875L145.922 120.83L145.244 119.559L143.48 120.5ZM140.865 117.468L139.734 119.117L139.745 119.125L140.865 117.468ZM131.329 119.709L129.634 118.647L129.632 118.65L131.329 119.709ZM131.087 137.111L129.635 135.736L128.621 136.807L129.344 138.092L131.087 137.111ZM143.128 137.705L144.815 138.78L144.818 138.775L143.128 137.705ZM145.018 125.708L143.037 125.982L143.037 125.986L145.018 125.708ZM144.469 122.983L146.399 122.459L145.466 119.021L143.016 121.608L144.469 122.983ZM128.802 118.391L127.108 117.327L128.802 118.391ZM132.186 115.095L133.201 116.818L133.207 116.814L132.186 115.095ZM142.315 115.095L141.286 116.81L141.297 116.816L141.307 116.822L142.315 115.095ZM142.359 142.275L143.375 143.998L143.38 143.995L142.359 142.275ZM132.142 142.275L131.113 143.99L131.123 143.996L131.134 144.002L132.142 142.275ZM128.736 138.979L127.047 140.05L127.051 140.057L127.055 140.063L128.736 138.979ZM126.868 134.255L128.824 133.838L128.823 133.83L128.821 133.823L126.868 134.255ZM127.285 128.696C127.285 130.982 127.561 133.154 128.126 135.204L131.983 134.141C131.522 132.47 131.285 130.658 131.285 128.696H127.285ZM131.506 136.048L144.932 121.875L142.028 119.125L128.602 133.297L131.506 136.048ZM145.244 119.559C144.417 118.007 143.342 116.728 141.985 115.811L139.745 119.125C140.468 119.614 141.136 120.356 141.715 121.441L145.244 119.559ZM141.996 115.818C140.602 114.863 138.997 114.413 137.261 114.413V118.413C138.28 118.413 139.077 118.667 139.734 119.117L141.996 115.818ZM137.261 114.413C133.99 114.413 131.374 115.87 129.634 118.647L133.024 120.771C134.037 119.153 135.377 118.413 137.261 118.413V114.413ZM129.632 118.65C127.998 121.268 127.285 124.681 127.285 128.696H131.285C131.285 125.093 131.935 122.515 133.025 120.768L129.632 118.65ZM129.344 138.092C131.101 141.216 133.782 142.979 137.261 142.979V138.979C135.409 138.979 133.973 138.163 132.83 136.131L129.344 138.092ZM137.261 142.979C140.487 142.979 143.068 141.519 144.815 138.78L141.442 136.629C140.405 138.255 139.075 138.979 137.261 138.979V142.979ZM144.818 138.775C146.486 136.141 147.216 132.718 147.216 128.696H143.216C143.216 132.291 142.554 134.873 141.439 136.634L144.818 138.775ZM147.216 128.696C147.216 127.558 147.145 126.469 146.998 125.429L143.037 125.986C143.155 126.822 143.216 127.724 143.216 128.696H147.216ZM146.999 125.433C146.856 124.403 146.657 123.411 146.399 122.459L142.538 123.506C142.749 124.283 142.916 125.108 143.037 125.982L146.999 125.433ZM143.016 121.608L129.635 135.736L132.539 138.487L145.921 124.358L143.016 121.608ZM128.275 128.696C128.275 126.92 128.465 125.218 128.84 123.584L124.941 122.689C124.496 124.63 124.275 126.633 124.275 128.696H128.275ZM128.84 123.584C129.206 121.988 129.765 120.619 130.496 119.454L127.108 117.327C126.111 118.916 125.395 120.712 124.941 122.689L128.84 123.584ZM130.496 119.454C131.191 118.346 132.087 117.474 133.201 116.818L131.17 113.372C129.501 114.356 128.141 115.681 127.108 117.327L130.496 119.454ZM133.207 116.814C134.245 116.198 135.568 115.842 137.261 115.842V111.842C135 111.842 132.939 112.322 131.165 113.375L133.207 116.814ZM137.261 115.842C138.956 115.842 140.267 116.198 141.286 116.81L143.344 113.38C141.58 112.321 139.522 111.842 137.261 111.842V115.842ZM141.307 116.822C142.438 117.482 143.349 118.357 144.057 119.467L147.429 117.315C146.379 115.671 145.005 114.348 143.323 113.367L141.307 116.822ZM144.057 119.467C144.796 120.624 145.351 121.983 145.702 123.569L149.607 122.705C149.167 120.716 148.448 118.911 147.429 117.315L144.057 119.467ZM145.702 123.569C146.064 125.207 146.248 126.915 146.248 128.696H150.248C150.248 126.639 150.036 124.64 149.607 122.705L145.702 123.569ZM146.248 128.696C146.248 130.476 146.064 132.184 145.702 133.823L149.607 134.687C150.036 132.751 150.248 130.753 150.248 128.696H146.248ZM145.702 133.823C145.35 135.413 144.8 136.766 144.076 137.908L147.454 140.05C148.458 138.467 149.168 136.671 149.607 134.687L145.702 133.823ZM144.076 137.908C143.383 139.001 142.478 139.879 141.338 140.555L143.38 143.995C145.053 143.001 146.419 141.682 147.454 140.05L144.076 137.908ZM141.344 140.552C140.326 141.152 138.997 141.505 137.261 141.505V145.505C139.54 145.505 141.609 145.039 143.375 143.998L141.344 140.552ZM137.261 141.505C135.527 141.505 134.186 141.152 133.15 140.547L131.134 144.002C132.91 145.038 134.982 145.505 137.261 145.505V141.505ZM133.171 140.56C132.042 139.882 131.129 138.999 130.417 137.895L127.055 140.063C128.101 141.683 129.459 142.998 131.113 143.99L133.171 140.56ZM130.425 137.908C129.704 136.771 129.162 135.423 128.824 133.838L124.912 134.672C125.336 136.661 126.04 138.463 127.047 140.05L130.425 137.908ZM128.821 133.823C128.459 132.184 128.275 130.476 128.275 128.696H124.275C124.275 130.753 124.487 132.751 124.916 134.687L128.821 133.823Z" fill="white"/>
<rect x="52.1616" y="176.871" width="122.005" height="36.909" rx="5" fill="white"/>
<rect x="56.2626" y="179.973" width="7.17676" height="7.17676" fill="#616161"/>
<rect x="56.2626" y="191.25" width="7.17676" height="7.17676" fill="#616161"/>
<rect x="56.2626" y="202.527" width="7.17676" height="7.17676" fill="#616161"/>
<rect x="67.5404" y="179.973" width="7.17676" height="7.17676" fill="#616161"/>
<rect x="67.5404" y="191.25" width="7.17676" height="7.17676" fill="#616161"/>
<rect x="67.5404" y="202.527" width="7.17676" height="7.17676" fill="#616161"/>
<rect x="78.8181" y="179.973" width="7.17676" height="7.17676" fill="#616161"/>
<rect x="78.8181" y="191.25" width="7.17676" height="7.17676" fill="#616161"/>
<rect x="78.8181" y="202.527" width="7.17676" height="7.17676" fill="#616161"/>
<rect x="90.0959" y="179.973" width="7.17676" height="7.17676" fill="#616161"/>
<rect x="90.0959" y="191.25" width="7.17676" height="7.17676" fill="#616161"/>
<rect x="101.374" y="179.973" width="7.17676" height="7.17676" fill="#616161"/>
<rect x="101.374" y="191.25" width="7.17676" height="7.17676" fill="#616161"/>
<rect x="112.651" y="179.973" width="7.17676" height="7.17676" fill="#616161"/>
<rect x="112.651" y="191.25" width="7.17676" height="7.17676" fill="#616161"/>
<rect x="123.929" y="179.973" width="7.17676" height="7.17676" fill="#616161"/>
<rect x="123.929" y="191.25" width="7.17676" height="7.17676" fill="#616161"/>
<rect x="135.207" y="179.973" width="7.17676" height="7.17676" fill="#616161"/>
<rect x="135.207" y="191.25" width="7.17676" height="7.17676" fill="#616161"/>
<rect x="139.308" y="202.527" width="7.17676" height="7.17676" fill="#616161"/>
<rect x="146.485" y="179.973" width="7.17676" height="7.17676" fill="#616161"/>
<rect x="146.485" y="191.25" width="7.17676" height="7.17676" fill="#616161"/>
<rect x="161.863" y="202.527" width="7.17676" height="7.17676" fill="#616161"/>
<rect x="150.586" y="202.527" width="7.17676" height="7.17676" fill="#616161"/>
<rect x="157.762" y="179.973" width="12.303" height="7.17676" fill="#616161"/>
<rect x="157.762" y="191.25" width="12.303" height="7.17676" fill="#616161"/>
<rect x="92.1464" y="202.527" width="41.01" height="7.17676" fill="#616161"/>
<path d="M63.3976 140.175L81.5146 130.598V130.11L63.3976 120.533V112.115L89.6276 126.145V134.563L63.3976 148.593V140.175Z" fill="white"/>
<path d="M1.59794 70.7518C-1.39948 94.1116 4.14181 108.164 8.3673 116.731L82.0802 61.8309L153.338 50.3563C156.926 45.3161 147.164 37.0414 141.545 31.2801C137.291 26.9185 135.299 23.3538 128.22 20.0986C123.765 18.0501 121.436 11.5264 113.354 8.83378C106.171 6.44095 88.9609 5.63404 77.9823 7.23869L77.8595 7.25664C56.9506 10.3127 53.3343 10.8413 31.846 18.5165C10.3158 26.2067 25.6943 27.6877 16.9796 42.0412C8.09581 52.297 2.47219 63.9384 1.59794 70.7518Z" fill="#FF9011" stroke="white"/>
<path d="M60.9983 34.9055C54.3749 34.8024 25.6945 36.9393 10.2653 47.0105L10.2653 41.5741C24.0356 32.622 56.098 27.9619 64.8408 29.1376C74.9346 30.495 89.6393 39.6274 96.1957 47.0105C87.008 42.7719 79.1027 35.1873 60.9983 34.9055Z" fill="white" stroke="white"/>
<path d="M121.615 15.299C116.429 7.29722 113.294 6.98254 101.563 2.68359L121.615 9.1477C125.489 11.5784 133.481 31.514 135.456 40.4209C131.432 33.1664 126.801 23.3007 121.615 15.299Z" fill="white" stroke="white"/>
<path d="M92.0695 55.7971C135.134 44.5927 178.111 46.9404 180 56.4998L51.855 89.7048L7.50024 115C21.2884 99.6605 49.0052 67.0016 92.0695 55.7971Z" fill="#FF9011" stroke="white" stroke-width="4"/>
<path d="M63.5003 89.5C45.0013 95.2488 20.4198 110.17 9.50024 116.5C9.50024 116.5 10.5002 114.5 14.5002 110C18.5002 105.5 20.5002 104.5 20.5002 104.5C30.572 96.1154 36.5002 90.5 60.0453 76.2795C80.119 66.68 104.927 62.6477 113.19 60.1454C131.014 56.0391 165.371 44.0591 178.413 56.5005C192.113 69.5705 162.872 82.7078 159.5 94C158 91.5 154.517 85.4529 150.278 82.5785C144.978 78.9855 133.927 78.4245 119.957 79.4511C105.986 80.4776 86.624 82.314 63.5003 89.5Z" fill="#FF9011"/>
<mask id="mask0_1498_62" style="mask-type:alpha" maskUnits="userSpaceOnUse" x="101" y="137" width="50" height="60">
<rect x="101.144" y="137" width="49.0649" height="59.4725" fill="#D9D9D9"/>
</mask>
<g mask="url(#mask0_1498_62)">
<path d="M144.452 165.791C146.718 166.621 148.722 166.737 149.537 168.224C150.452 169.893 150.288 172.8 149.537 174.171C147.236 178.372 126.381 189.583 109.666 190.556C106.561 190.737 104.806 190.737 101.701 190.556C84.9639 189.584 63.2757 179.433 61.7672 174.798C61.0792 172.684 61.1683 171.156 61.7672 169.35C62.3662 167.544 65.862 166.633 68.5133 165.993C72.1284 165.121 74.0521 164.313 77.4342 162.757C86.1059 158.768 90.8382 147.692 98.4118 147.477C101.433 147.391 110.524 147.41 113.118 147.41C122.89 147.409 125.884 158.86 135.531 162.757C139.521 164.369 140.845 164.469 144.452 165.791Z" fill="#FF9011"/>
</g>
<mask id="mask1_1498_62" style="mask-type:alpha" maskUnits="userSpaceOnUse" x="61" y="137" width="50" height="60">
<rect width="49.0649" height="59.4725" transform="matrix(-1 0 0 1 110.065 137)" fill="#D9D9D9"/>
</mask>
<g mask="url(#mask1_1498_62)">
<path d="M66.7575 165.791C64.4917 166.621 62.4871 166.737 61.6722 168.224C60.7574 169.893 60.9214 172.8 61.6722 174.171C63.9739 178.372 84.8289 189.583 101.543 190.556C104.649 190.737 106.403 190.737 109.508 190.556C126.246 189.584 147.934 179.433 149.442 174.798C150.13 172.684 150.041 171.156 149.442 169.35C148.843 167.544 145.347 166.633 142.696 165.993C139.081 165.121 137.157 164.313 133.775 162.757C125.104 158.768 120.371 147.692 112.798 147.477C109.776 147.391 100.686 147.41 98.0918 147.41C88.3192 147.409 85.325 158.86 75.6781 162.757C71.6883 164.369 70.3645 164.469 66.7575 165.791Z" fill="#FF9011"/>
</g>
</svg>
